<?xml version="1.0" encoding="UTF-8" standalone="no"?>
<!DOCTYPE svg PUBLIC "-//W3C//DTD SVG 1.1//EN"
 "http://www.w3.org/Graphics/SVG/1.1/DTD/svg11.dtd">
<!-- Generated by graphviz version 2.40.1 (20161225.0304)
 -->
<!-- Title: boxes_and_circles Pages: 1 -->
<svg width="491pt" height="653pt"
 viewBox="0.00 0.00 490.66 652.80" xmlns="http://www.w3.org/2000/svg" xmlns:xlink="http://www.w3.org/1999/xlink">
<g id="graph0" class="graph" transform="scale(1 1) rotate(0) translate(4 648.8)">
<title>boxes_and_circles</title>
<!-- I -->
<g id="node1" class="node">
<title>I</title>
<ellipse fill="none" stroke="#000000" cx="54" cy="-150" rx="54" ry="54"/>
<text text-anchor="middle" x="54" y="-142.5" font-family="Times,serif" font-size="25.00" fill="#000000">Institutio.</text>
</g>
<!-- I&#45;&gt;I -->
<g id="edge25" class="edge">
<title>I&#45;&gt;I</title>
<path fill="none" stroke="#7f7f7f" stroke-width="1.15" stroke-dasharray="5,2" d="M40.2238,-209.403C42.625,-216.9923 47.217,-222 54,-222 60.783,-222 65.375,-216.9923 67.7762,-209.403"/>
<polygon fill="#7f7f7f" stroke="#7f7f7f" stroke-width="1.15" points="42.7345,-208.5839 38.6345,-201.7772 37.595,-209.655 42.7345,-208.5839"/>
<polygon fill="#7f7f7f" stroke="#7f7f7f" stroke-width="1.15" points="70.405,-209.655 69.3655,-201.7772 65.2655,-208.5839 70.405,-209.655"/>
<text text-anchor="middle" x="54" y="-226.2" font-family="Times,serif" font-size="14.00" fill="#000000">1.00</text>
</g>
<!-- 6 -->
<g id="node9" class="node">
<title>6</title>
<polygon fill="none" stroke="#000000" points="384.5,-306 168.5,-306 168.5,-270 384.5,-270 384.5,-306"/>
<text text-anchor="middle" x="276.5" y="-282" font-family="Times,serif" font-size="20.00" fill="#000000">RSA</text>
</g>
<!-- I&#45;&gt;6 -->
<g id="edge1" class="edge">
<title>I&#45;&gt;6</title>
<path fill="none" stroke="#000000" stroke-width="1.15" d="M87.6816,-192.4813C108.5522,-216.0418 137.2793,-243.9424 168.5,-261 171.7888,-262.7968 175.199,-264.4764 178.6933,-266.0461"/>
<polygon fill="#000000" stroke="#000000" stroke-width="1.15" points="177.5359,-269.355 188.114,-269.9498 180.2156,-262.8882 177.5359,-269.355"/>
<text text-anchor="middle" x="138.25" y="-254.2" font-family="Times,serif" font-size="14.00" fill="#000000">0.60</text>
</g>
<!-- 7 -->
<g id="node10" class="node">
<title>7</title>
<polygon fill="none" stroke="#000000" points="384.5,-252 168.5,-252 168.5,-216 384.5,-216 384.5,-252"/>
<text text-anchor="middle" x="276.5" y="-228" font-family="Times,serif" font-size="20.00" fill="#000000">Chômage</text>
</g>
<!-- I&#45;&gt;7 -->
<g id="edge2" class="edge">
<title>I&#45;&gt;7</title>
<path fill="none" stroke="#000000" stroke-width="1.15" d="M101.1632,-176.3672C121.4424,-186.939 145.688,-198.584 168.5,-207 174.2712,-209.1292 180.2768,-211.1463 186.3692,-213.0462"/>
<polygon fill="#000000" stroke="#000000" stroke-width="1.15" points="185.4094,-216.4123 195.9934,-215.9348 187.4217,-209.7078 185.4094,-216.4123"/>
<text text-anchor="middle" x="138.25" y="-204.2" font-family="Times,serif" font-size="14.00" fill="#000000">0.31</text>
</g>
<!-- 8 -->
<g id="node11" class="node">
<title>8</title>
<polygon fill="none" stroke="#000000" points="384.5,-198 168.5,-198 168.5,-162 384.5,-162 384.5,-198"/>
<text text-anchor="middle" x="276.5" y="-174" font-family="Times,serif" font-size="20.00" fill="#000000">APL</text>
</g>
<!-- I&#45;&gt;8 -->
<g id="edge3" class="edge">
<title>I&#45;&gt;8</title>
<path fill="none" stroke="#ff0000" stroke-width="1.15" d="M107.5774,-157.2239C122.9488,-159.2965 140.3506,-161.6428 157.9968,-164.022"/>
<polygon fill="#ff0000" stroke="#ff0000" stroke-width="1.15" points="158.0233,-167.5572 168.4013,-165.4249 158.9587,-160.62 158.0233,-167.5572"/>
<text text-anchor="middle" x="138.25" y="-167.2" font-family="Times,serif" font-size="14.00" fill="#000000">1.09</text>
</g>
<!-- 9 -->
<g id="node12" class="node">
<title>9</title>
<polygon fill="none" stroke="#000000" points="384.5,-144 168.5,-144 168.5,-108 384.5,-108 384.5,-144"/>
<text text-anchor="middle" x="276.5" y="-120" font-family="Times,serif" font-size="20.00" fill="#000000">Hand./Dépend.</text>
</g>
<!-- I&#45;&gt;9 -->
<g id="edge4" class="edge">
<title>I&#45;&gt;9</title>
<path fill="none" stroke="#000000" stroke-width="1.15" d="M106.9087,-137.3732C113.3138,-136.146 119.7865,-135.0454 126,-134.2 136.422,-132.782 147.2815,-131.6072 158.1842,-130.6341"/>
<polygon fill="#000000" stroke="#000000" stroke-width="1.15" points="158.5245,-134.1179 168.1977,-129.7959 157.9405,-127.1423 158.5245,-134.1179"/>
<text text-anchor="middle" x="138.25" y="-139.2" font-family="Times,serif" font-size="14.00" fill="#000000">0.34</text>
</g>
<!-- 10 -->
<g id="node13" class="node">
<title>10</title>
<polygon fill="none" stroke="#000000" points="384.5,-90 168.5,-90 168.5,-54 384.5,-54 384.5,-90"/>
<text text-anchor="middle" x="276.5" y="-66" font-family="Times,serif" font-size="20.00" fill="#000000">Bourse étude</text>
</g>
<!-- I&#45;&gt;10 -->
<g id="edge5" class="edge">
<title>I&#45;&gt;10</title>
<path fill="none" stroke="#000000" stroke-width="1.15" d="M100.9388,-122.8484C109.1482,-118.6393 117.7156,-114.5754 126,-111.2 143.5666,-104.0426 162.8259,-97.8614 181.526,-92.6596"/>
<polygon fill="#000000" stroke="#000000" stroke-width="1.15" points="182.5045,-96.0208 191.2421,-90.0287 180.6749,-89.2641 182.5045,-96.0208"/>
<text text-anchor="middle" x="138.25" y="-116.2" font-family="Times,serif" font-size="14.00" fill="#000000">0.44</text>
</g>
<!-- 11 -->
<g id="node14" class="node">
<title>11</title>
<polygon fill="none" stroke="#000000" points="384.5,-36 168.5,-36 168.5,0 384.5,0 384.5,-36"/>
<text text-anchor="middle" x="276.5" y="-12" font-family="Times,serif" font-size="20.00" fill="#000000">HLM</text>
</g>
<!-- I&#45;&gt;11 -->
<g id="edge6" class="edge">
<title>I&#45;&gt;11</title>
<path fill="none" stroke="#000000" stroke-width="1.15" d="M89.0479,-108.7184C109.9558,-86.6392 138.2682,-60.8155 168.5,-45 172.012,-43.1627 175.6544,-41.4465 179.3838,-39.8439"/>
<polygon fill="#000000" stroke="#000000" stroke-width="1.15" points="180.8137,-43.0418 188.8083,-36.0894 178.223,-36.5388 180.8137,-43.0418"/>
<text text-anchor="middle" x="138.25" y="-78.2" font-family="Times,serif" font-size="14.00" fill="#000000">0.56</text>
</g>
<!-- M -->
<g id="node2" class="node">
<title>M</title>
<ellipse fill="none" stroke="#000000" cx="54" cy="-396" rx="54" ry="54"/>
<text text-anchor="middle" x="54" y="-388.5" font-family="Times,serif" font-size="25.00" fill="#000000">Monétaire</text>
</g>
<!-- M&#45;&gt;M -->
<g id="edge24" class="edge">
<title>M&#45;&gt;M</title>
<path fill="none" stroke="#7f7f7f" stroke-width="1.15" stroke-dasharray="5,2" d="M40.2238,-455.403C42.625,-462.9923 47.217,-468 54,-468 60.783,-468 65.375,-462.9923 67.7762,-455.403"/>
<polygon fill="#7f7f7f" stroke="#7f7f7f" stroke-width="1.15" points="42.7345,-454.5839 38.6345,-447.7772 37.595,-455.655 42.7345,-454.5839"/>
<polygon fill="#7f7f7f" stroke="#7f7f7f" stroke-width="1.15" points="70.405,-455.655 69.3655,-447.7772 65.2655,-454.5839 70.405,-455.655"/>
<text text-anchor="middle" x="54" y="-472.2" font-family="Times,serif" font-size="14.00" fill="#000000">1.00</text>
</g>
<!-- 3 -->
<g id="node6" class="node">
<title>3</title>
<polygon fill="none" stroke="#000000" points="384.5,-468 168.5,-468 168.5,-432 384.5,-432 384.5,-468"/>
<text text-anchor="middle" x="276.5" y="-444" font-family="Times,serif" font-size="20.00" fill="#000000">(&#45;) Quintile niveau de vie</text>
</g>
<!-- M&#45;&gt;3 -->
<g id="edge7" class="edge">
<title>M&#45;&gt;3</title>
<path fill="none" stroke="#000000" stroke-width="1.15" d="M105.7965,-411.5637C112.5733,-413.4656 119.4394,-415.326 126,-417 143.2765,-421.4082 161.7595,-425.758 179.6494,-429.7811"/>
<polygon fill="#000000" stroke="#000000" stroke-width="1.15" points="178.9938,-433.2208 189.5158,-431.9808 180.5171,-426.3885 178.9938,-433.2208"/>
<text text-anchor="middle" x="138.25" y="-428.2" font-family="Times,serif" font-size="14.00" fill="#000000">0.63</text>
</g>
<!-- 4 -->
<g id="node7" class="node">
<title>4</title>
<polygon fill="none" stroke="#000000" points="384.5,-414 168.5,-414 168.5,-378 384.5,-378 384.5,-414"/>
<text text-anchor="middle" x="276.5" y="-390" font-family="Times,serif" font-size="20.00" fill="#000000">(&#45;) Revenus locatifs</text>
</g>
<!-- M&#45;&gt;4 -->
<g id="edge8" class="edge">
<title>M&#45;&gt;4</title>
<path fill="none" stroke="#000000" stroke-width="1.15" d="M108.1451,-396C123.4144,-396 140.6527,-396 158.1264,-396"/>
<polygon fill="#000000" stroke="#000000" stroke-width="1.15" points="158.4287,-399.5001 168.4287,-396 158.4287,-392.5001 158.4287,-399.5001"/>
<text text-anchor="middle" x="138.25" y="-400.2" font-family="Times,serif" font-size="14.00" fill="#000000">0.73</text>
</g>
<!-- 5 -->
<g id="node8" class="node">
<title>5</title>
<polygon fill="none" stroke="#000000" points="384.5,-360 168.5,-360 168.5,-324 384.5,-324 384.5,-360"/>
<text text-anchor="middle" x="276.5" y="-336" font-family="Times,serif" font-size="20.00" fill="#000000">(&#45;) Revenus financiers</text>
</g>
<!-- M&#45;&gt;5 -->
<g id="edge9" class="edge">
<title>M&#45;&gt;5</title>
<path fill="none" stroke="#000000" stroke-width="1.15" d="M105.8038,-380.6045C112.5793,-378.7174 119.4432,-376.8685 126,-375.2 143.503,-370.7461 162.239,-366.3328 180.3411,-362.2483"/>
<polygon fill="#000000" stroke="#000000" stroke-width="1.15" points="181.3266,-365.6144 190.3207,-360.0148 179.7977,-358.7834 181.3266,-365.6144"/>
<text text-anchor="middle" x="138.25" y="-380.2" font-family="Times,serif" font-size="14.00" fill="#000000">0.77</text>
</g>
<!-- S -->
<g id="node3" class="node">
<title>S</title>
<ellipse fill="none" stroke="#000000" cx="54" cy="-556" rx="54" ry="54"/>
<text text-anchor="middle" x="54" y="-548.5" font-family="Times,serif" font-size="25.00" fill="#000000">Subjectif</text>
</g>
<!-- S&#45;&gt;S -->
<g id="edge23" class="edge">
<title>S&#45;&gt;S</title>
<path fill="none" stroke="#7f7f7f" stroke-width="1.15" stroke-dasharray="5,2" d="M40.2238,-615.403C42.625,-622.9923 47.217,-628 54,-628 60.783,-628 65.375,-622.9923 67.7762,-615.403"/>
<polygon fill="#7f7f7f" stroke="#7f7f7f" stroke-width="1.15" points="42.7345,-614.5839 38.6345,-607.7772 37.595,-615.655 42.7345,-614.5839"/>
<polygon fill="#7f7f7f" stroke="#7f7f7f" stroke-width="1.15" points="70.405,-615.655 69.3655,-607.7772 65.2655,-614.5839 70.405,-615.655"/>
<text text-anchor="middle" x="54" y="-632.2" font-family="Times,serif" font-size="14.00" fill="#000000">1.00</text>
</g>
<!-- 1 -->
<g id="node4" class="node">
<title>1</title>
<polygon fill="none" stroke="#000000" points="384.5,-602 168.5,-602 168.5,-566 384.5,-566 384.5,-602"/>
<text text-anchor="middle" x="276.5" y="-578" font-family="Times,serif" font-size="20.00" fill="#000000">Sentiment de pauvreté</text>
</g>
<!-- S&#45;&gt;1 -->
<g id="edge10" class="edge">
<title>S&#45;&gt;1</title>
<path fill="none" stroke="#000000" stroke-width="1.15" d="M107.5774,-562.7423C122.9488,-564.6767 140.3506,-566.8666 157.9968,-569.0872"/>
<polygon fill="#000000" stroke="#000000" stroke-width="1.15" points="158.0425,-572.6205 168.4013,-570.3966 158.9166,-565.6753 158.0425,-572.6205"/>
<text text-anchor="middle" x="138.25" y="-572.2" font-family="Times,serif" font-size="14.00" fill="#000000">1.00</text>
</g>
<!-- 2 -->
<g id="node5" class="node">
<title>2</title>
<polygon fill="none" stroke="#000000" points="384.5,-548 168.5,-548 168.5,-512 384.5,-512 384.5,-548"/>
<text text-anchor="middle" x="276.5" y="-524" font-family="Times,serif" font-size="20.00" fill="#000000">Diff. fin. perçues</text>
</g>
<!-- S&#45;&gt;2 -->
<g id="edge11" class="edge">
<title>S&#45;&gt;2</title>
<path fill="none" stroke="#000000" stroke-width="1.15" d="M106.9486,-544.3125C113.3467,-543.1384 119.8068,-542.0633 126,-541.2 136.4306,-539.746 147.296,-538.4724 158.2025,-537.3586"/>
<polygon fill="#000000" stroke="#000000" stroke-width="1.15" points="158.6068,-540.8358 168.219,-536.3799 157.926,-533.869 158.6068,-540.8358"/>
<text text-anchor="middle" x="138.25" y="-546.2" font-family="Times,serif" font-size="14.00" fill="#000000">0.51</text>
</g>
<!-- 1&#45;&gt;1 -->
<g id="edge12" class="edge">
<title>1:e&#45;&gt;1:e</title>
<path fill="none" stroke="#7f7f7f" stroke-width="1.15" stroke-dasharray="5,2" d="M391.8321,-586.3792C416.0457,-592.9142 453.5,-592.1211 453.5,-584 453.5,-575.8789 416.0457,-575.0858 391.8321,-581.6208"/>
<polygon fill="#7f7f7f" stroke="#7f7f7f" stroke-width="1.15" points="392.4441,-583.8181 384.5,-584 390.8236,-588.8118 392.4441,-583.8181"/>
<polygon fill="#7f7f7f" stroke="#7f7f7f" stroke-width="1.15" points="390.8236,-579.1882 384.5,-584 392.4441,-584.1819 390.8236,-579.1882"/>
<text text-anchor="middle" x="465.75" y="-579.8" font-family="Times,serif" font-size="14.00" fill="#000000">1.00</text>
</g>
<!-- 2&#45;&gt;2 -->
<g id="edge13" class="edge">
<title>2:e&#45;&gt;2:e</title>
<path fill="none" stroke="#7f7f7f" stroke-width="1.15" stroke-dasharray="5,2" d="M391.8321,-532.3792C416.0457,-538.9142 453.5,-538.1211 453.5,-530 453.5,-521.8789 416.0457,-521.0858 391.8321,-527.6208"/>
<polygon fill="#7f7f7f" stroke="#7f7f7f" stroke-width="1.15" points="392.4441,-529.8181 384.5,-530 390.8236,-534.8118 392.4441,-529.8181"/>
<polygon fill="#7f7f7f" stroke="#7f7f7f" stroke-width="1.15" points="390.8236,-525.1882 384.5,-530 392.4441,-530.1819 390.8236,-525.1882"/>
<text text-anchor="middle" x="465.75" y="-525.8" font-family="Times,serif" font-size="14.00" fill="#000000">0.74</text>
</g>
<!-- 3&#45;&gt;3 -->
<g id="edge14" class="edge">
<title>3:e&#45;&gt;3:e</title>
<path fill="none" stroke="#7f7f7f" stroke-width="1.15" stroke-dasharray="5,2" d="M391.8321,-452.3792C416.0457,-458.9142 453.5,-458.1211 453.5,-450 453.5,-441.8789 416.0457,-441.0858 391.8321,-447.6208"/>
<polygon fill="#7f7f7f" stroke="#7f7f7f" stroke-width="1.15" points="392.4441,-449.8181 384.5,-450 390.8236,-454.8118 392.4441,-449.8181"/>
<polygon fill="#7f7f7f" stroke="#7f7f7f" stroke-width="1.15" points="390.8236,-445.1882 384.5,-450 392.4441,-450.1819 390.8236,-445.1882"/>
<text text-anchor="middle" x="465.75" y="-445.8" font-family="Times,serif" font-size="14.00" fill="#000000">0.60</text>
</g>
<!-- 4&#45;&gt;4 -->
<g id="edge15" class="edge">
<title>4:e&#45;&gt;4:e</title>
<path fill="none" stroke="#7f7f7f" stroke-width="1.15" stroke-dasharray="5,2" d="M391.8321,-398.3792C416.0457,-404.9142 453.5,-404.1211 453.5,-396 453.5,-387.8789 416.0457,-387.0858 391.8321,-393.6208"/>
<polygon fill="#7f7f7f" stroke="#7f7f7f" stroke-width="1.15" points="392.4441,-395.8181 384.5,-396 390.8236,-400.8118 392.4441,-395.8181"/>
<polygon fill="#7f7f7f" stroke="#7f7f7f" stroke-width="1.15" points="390.8236,-391.1882 384.5,-396 392.4441,-396.1819 390.8236,-391.1882"/>
<text text-anchor="middle" x="465.75" y="-391.8" font-family="Times,serif" font-size="14.00" fill="#000000">0.47</text>
</g>
<!-- 5&#45;&gt;5 -->
<g id="edge16" class="edge">
<title>5:e&#45;&gt;5:e</title>
<path fill="none" stroke="#7f7f7f" stroke-width="1.15" stroke-dasharray="5,2" d="M391.8321,-344.3792C416.0457,-350.9142 453.5,-350.1211 453.5,-342 453.5,-333.8789 416.0457,-333.0858 391.8321,-339.6208"/>
<polygon fill="#7f7f7f" stroke="#7f7f7f" stroke-width="1.15" points="392.4441,-341.8181 384.5,-342 390.8236,-346.8118 392.4441,-341.8181"/>
<polygon fill="#7f7f7f" stroke="#7f7f7f" stroke-width="1.15" points="390.8236,-337.1882 384.5,-342 392.4441,-342.1819 390.8236,-337.1882"/>
<text text-anchor="middle" x="465.75" y="-337.8" font-family="Times,serif" font-size="14.00" fill="#000000">0.41</text>
</g>
<!-- 6&#45;&gt;6 -->
<g id="edge17" class="edge">
<title>6:e&#45;&gt;6:e</title>
<path fill="none" stroke="#7f7f7f" stroke-width="1.15" stroke-dasharray="5,2" d="M391.8321,-290.3792C416.0457,-296.9142 453.5,-296.1211 453.5,-288 453.5,-279.8789 416.0457,-279.0858 391.8321,-285.6208"/>
<polygon fill="#7f7f7f" stroke="#7f7f7f" stroke-width="1.15" points="392.4441,-287.8181 384.5,-288 390.8236,-292.8118 392.4441,-287.8181"/>
<polygon fill="#7f7f7f" stroke="#7f7f7f" stroke-width="1.15" points="390.8236,-283.1882 384.5,-288 392.4441,-288.1819 390.8236,-283.1882"/>
<text text-anchor="middle" x="465.75" y="-283.8" font-family="Times,serif" font-size="14.00" fill="#000000">0.63</text>
</g>
<!-- 7&#45;&gt;7 -->
<g id="edge18" class="edge">
<title>7:e&#45;&gt;7:e</title>
<path fill="none" stroke="#7f7f7f" stroke-width="1.15" stroke-dasharray="5,2" d="M391.8321,-236.3792C416.0457,-242.9142 453.5,-242.1211 453.5,-234 453.5,-225.8789 416.0457,-225.0858 391.8321,-231.6208"/>
<polygon fill="#7f7f7f" stroke="#7f7f7f" stroke-width="1.15" points="392.4441,-233.8181 384.5,-234 390.8236,-238.8118 392.4441,-233.8181"/>
<polygon fill="#7f7f7f" stroke="#7f7f7f" stroke-width="1.15" points="390.8236,-229.1882 384.5,-234 392.4441,-234.1819 390.8236,-229.1882"/>
<text text-anchor="middle" x="465.75" y="-229.8" font-family="Times,serif" font-size="14.00" fill="#000000">0.90</text>
</g>
<!-- 8&#45;&gt;8 -->
<g id="edge19" class="edge">
<title>8:e&#45;&gt;8:e</title>
<path fill="none" stroke="#ff0000" stroke-width="1.15" stroke-dasharray="5,2" d="M391.8321,-182.3792C416.0457,-188.9142 453.5,-188.1211 453.5,-180 453.5,-171.8789 416.0457,-171.0858 391.8321,-177.6208"/>
<polygon fill="#ff0000" stroke="#ff0000" stroke-width="1.15" points="392.4441,-179.8181 384.5,-180 390.8236,-184.8118 392.4441,-179.8181"/>
<polygon fill="#ff0000" stroke="#ff0000" stroke-width="1.15" points="390.8236,-175.1882 384.5,-180 392.4441,-180.1819 390.8236,-175.1882"/>
<text text-anchor="middle" x="468.0803" y="-175.8" font-family="Times,serif" font-size="14.00" fill="#000000">&#45;0.18</text>
</g>
<!-- 9&#45;&gt;9 -->
<g id="edge20" class="edge">
<title>9:e&#45;&gt;9:e</title>
<path fill="none" stroke="#7f7f7f" stroke-width="1.15" stroke-dasharray="5,2" d="M391.8321,-128.3792C416.0457,-134.9142 453.5,-134.1211 453.5,-126 453.5,-117.8789 416.0457,-117.0858 391.8321,-123.6208"/>
<polygon fill="#7f7f7f" stroke="#7f7f7f" stroke-width="1.15" points="392.4441,-125.8181 384.5,-126 390.8236,-130.8118 392.4441,-125.8181"/>
<polygon fill="#7f7f7f" stroke="#7f7f7f" stroke-width="1.15" points="390.8236,-121.1882 384.5,-126 392.4441,-126.1819 390.8236,-121.1882"/>
<text text-anchor="middle" x="465.75" y="-121.8" font-family="Times,serif" font-size="14.00" fill="#000000">0.89</text>
</g>
<!-- 10&#45;&gt;10 -->
<g id="edge21" class="edge">
<title>10:e&#45;&gt;10:e</title>
<path fill="none" stroke="#7f7f7f" stroke-width="1.15" stroke-dasharray="5,2" d="M391.8321,-74.3792C416.0457,-80.9142 453.5,-80.1211 453.5,-72 453.5,-63.8789 416.0457,-63.0858 391.8321,-69.6208"/>
<polygon fill="#7f7f7f" stroke="#7f7f7f" stroke-width="1.15" points="392.4441,-71.8181 384.5,-72 390.8236,-76.8118 392.4441,-71.8181"/>
<polygon fill="#7f7f7f" stroke="#7f7f7f" stroke-width="1.15" points="390.8236,-67.1882 384.5,-72 392.4441,-72.1819 390.8236,-67.1882"/>
<text text-anchor="middle" x="465.75" y="-67.8" font-family="Times,serif" font-size="14.00" fill="#000000">0.81</text>
</g>
<!-- 11&#45;&gt;11 -->
<g id="edge22" class="edge">
<title>11:e&#45;&gt;11:e</title>
<path fill="none" stroke="#7f7f7f" stroke-width="1.15" stroke-dasharray="5,2" d="M391.8321,-20.3792C416.0457,-26.9142 453.5,-26.1211 453.5,-18 453.5,-9.8789 416.0457,-9.0858 391.8321,-15.6208"/>
<polygon fill="#7f7f7f" stroke="#7f7f7f" stroke-width="1.15" points="392.4441,-17.8181 384.5,-18 390.8236,-22.8118 392.4441,-17.8181"/>
<polygon fill="#7f7f7f" stroke="#7f7f7f" stroke-width="1.15" points="390.8236,-13.1882 384.5,-18 392.4441,-18.1819 390.8236,-13.1882"/>
<text text-anchor="middle" x="465.75" y="-13.8" font-family="Times,serif" font-size="14.00" fill="#000000">0.68</text>
</g>
</g>
</svg>

