<?xml version="1.0" encoding="UTF-8" standalone="no"?>
<!DOCTYPE svg PUBLIC "-//W3C//DTD SVG 1.1//EN"
 "http://www.w3.org/Graphics/SVG/1.1/DTD/svg11.dtd">
<!-- Generated by graphviz version 2.40.1 (20161225.0304)
 -->
<!-- Title: boxes_and_circles Pages: 1 -->
<svg width="602pt" height="705pt"
 viewBox="0.00 0.00 602.25 704.80" xmlns="http://www.w3.org/2000/svg" xmlns:xlink="http://www.w3.org/1999/xlink">
<g id="graph0" class="graph" transform="scale(1 1) rotate(0) translate(4 700.8)">
<title>boxes_and_circles</title>
<!-- I -->
<g id="node1" class="node">
<title>I</title>
<ellipse fill="none" stroke="#000000" cx="138.25" cy="-180" rx="54" ry="54"/>
<text text-anchor="middle" x="138.25" y="-172.5" font-family="Times,serif" font-size="25.00" fill="#000000">Institutio.</text>
</g>
<!-- I&#45;&gt;I -->
<g id="edge24" class="edge">
<title>I&#45;&gt;I</title>
<path fill="none" stroke="#7f7f7f" stroke-width="1.15" stroke-dasharray="5,2" d="M126.5581,-239.822C128.6464,-247.176 132.5437,-252 138.25,-252 143.9563,-252 147.8536,-247.176 149.9419,-239.822"/>
<polygon fill="#7f7f7f" stroke="#7f7f7f" stroke-width="1.15" points="129.1308,-239.2992 125.1488,-232.4228 123.9735,-240.2815 129.1308,-239.2992"/>
<polygon fill="#7f7f7f" stroke="#7f7f7f" stroke-width="1.15" points="152.5265,-240.2815 151.3512,-232.4228 147.3692,-239.2992 152.5265,-240.2815"/>
<text text-anchor="middle" x="138.25" y="-256.2" font-family="Times,serif" font-size="14.00" fill="#000000">1.00</text>
</g>
<!-- 6 -->
<g id="node7" class="node">
<title>6</title>
<polygon fill="none" stroke="#000000" points="506.75,-306 290.75,-306 290.75,-270 506.75,-270 506.75,-306"/>
<text text-anchor="middle" x="398.75" y="-282" font-family="Times,serif" font-size="20.00" fill="#000000">RSA</text>
</g>
<!-- I&#45;&gt;6 -->
<g id="edge4" class="edge">
<title>I&#45;&gt;6</title>
<path fill="none" stroke="#000000" stroke-width="1.15" d="M184.5903,-208.4239C214.1189,-225.5632 253.668,-246.7614 290.75,-261 297.0438,-263.4167 303.6276,-265.676 310.3056,-267.7761"/>
<polygon fill="#000000" stroke="#000000" stroke-width="1.15" points="309.6401,-270.3175 317.5796,-269.9923 311.1703,-265.2954 309.6401,-270.3175"/>
<text text-anchor="middle" x="241.5" y="-249.2" font-family="Times,serif" font-size="14.00" fill="#000000">0.74</text>
</g>
<!-- 7 -->
<g id="node8" class="node">
<title>7</title>
<polygon fill="none" stroke="#000000" points="506.75,-252 290.75,-252 290.75,-216 506.75,-216 506.75,-252"/>
<text text-anchor="middle" x="398.75" y="-228" font-family="Times,serif" font-size="20.00" fill="#000000">Chômage</text>
</g>
<!-- I&#45;&gt;7 -->
<g id="edge5" class="edge">
<title>I&#45;&gt;7</title>
<path fill="none" stroke="#000000" stroke-width="1.15" d="M191.1127,-192.5239C203.5998,-195.3922 216.8798,-198.3693 229.25,-201 250.7217,-205.5662 273.7774,-210.2201 295.7544,-214.5379"/>
<polygon fill="#000000" stroke="#000000" stroke-width="1.15" points="295.2975,-217.1232 303.1622,-215.9887 296.3066,-211.9711 295.2975,-217.1232"/>
<text text-anchor="middle" x="241.5" y="-211.2" font-family="Times,serif" font-size="14.00" fill="#000000">0.35</text>
</g>
<!-- 8 -->
<g id="node9" class="node">
<title>8</title>
<polygon fill="none" stroke="#000000" points="506.75,-198 290.75,-198 290.75,-162 506.75,-162 506.75,-198"/>
<text text-anchor="middle" x="398.75" y="-174" font-family="Times,serif" font-size="20.00" fill="#000000">APL</text>
</g>
<!-- I&#45;&gt;8 -->
<g id="edge6" class="edge">
<title>I&#45;&gt;8</title>
<path fill="none" stroke="#000000" stroke-width="1.15" d="M192.5422,-180C218.8397,-180 251.4871,-180 282.9896,-180"/>
<polygon fill="#000000" stroke="#000000" stroke-width="1.15" points="283.0403,-182.6251 290.5402,-180 283.0402,-177.3751 283.0403,-182.6251"/>
<text text-anchor="middle" x="241.5" y="-184.2" font-family="Times,serif" font-size="14.00" fill="#000000">0.89</text>
</g>
<!-- 9 -->
<g id="node10" class="node">
<title>9</title>
<polygon fill="none" stroke="#000000" points="506.75,-144 290.75,-144 290.75,-108 506.75,-108 506.75,-144"/>
<text text-anchor="middle" x="398.75" y="-120" font-family="Times,serif" font-size="20.00" fill="#000000">Hand./Dépend.</text>
</g>
<!-- I&#45;&gt;9 -->
<g id="edge7" class="edge">
<title>I&#45;&gt;9</title>
<path fill="none" stroke="#000000" stroke-width="1.15" d="M191.1195,-167.6213C203.6063,-164.7793 216.8845,-161.8235 229.25,-159.2 250.9922,-154.587 274.3534,-149.8621 296.5735,-145.4768"/>
<polygon fill="#000000" stroke="#000000" stroke-width="1.15" points="297.2093,-148.0271 304.0613,-144.0033 296.1955,-142.8759 297.2093,-148.0271"/>
<text text-anchor="middle" x="241.5" y="-164.2" font-family="Times,serif" font-size="14.00" fill="#000000">0.35</text>
</g>
<!-- 10 -->
<g id="node11" class="node">
<title>10</title>
<polygon fill="none" stroke="#000000" points="506.75,-90 290.75,-90 290.75,-54 506.75,-54 506.75,-90"/>
<text text-anchor="middle" x="398.75" y="-66" font-family="Times,serif" font-size="20.00" fill="#000000">Bourse étude</text>
</g>
<!-- I&#45;&gt;10 -->
<g id="edge8" class="edge">
<title>I&#45;&gt;10</title>
<path fill="none" stroke="#000000" stroke-width="1.15" d="M184.5903,-151.5761C214.1189,-134.4368 253.668,-113.2386 290.75,-99 297.0438,-96.5833 303.6276,-94.324 310.3056,-92.2239"/>
<polygon fill="#000000" stroke="#000000" stroke-width="1.15" points="311.1703,-94.7046 317.5796,-90.0077 309.6401,-89.6825 311.1703,-94.7046"/>
<text text-anchor="middle" x="241.5" y="-131.2" font-family="Times,serif" font-size="14.00" fill="#000000">0.44</text>
</g>
<!-- 11 -->
<g id="node12" class="node">
<title>11</title>
<polygon fill="none" stroke="#000000" points="506.75,-36 290.75,-36 290.75,0 506.75,0 506.75,-36"/>
<text text-anchor="middle" x="398.75" y="-12" font-family="Times,serif" font-size="20.00" fill="#000000">HLM</text>
</g>
<!-- I&#45;&gt;11 -->
<g id="edge9" class="edge">
<title>I&#45;&gt;11</title>
<path fill="none" stroke="#000000" stroke-width="1.15" d="M173.549,-138.8297C202.0805,-108.2389 244.9178,-67.9809 290.75,-45 295.2771,-42.7301 300.0089,-40.6419 304.8561,-38.7222"/>
<polygon fill="#000000" stroke="#000000" stroke-width="1.15" points="305.9315,-41.1224 312.03,-36.0284 304.0859,-36.2075 305.9315,-41.1224"/>
<text text-anchor="middle" x="241.5" y="-89.2" font-family="Times,serif" font-size="14.00" fill="#000000">0.65</text>
</g>
<!-- M -->
<g id="node2" class="node">
<title>M</title>
<ellipse fill="none" stroke="#000000" cx="138.25" cy="-394" rx="54" ry="54"/>
<text text-anchor="middle" x="138.25" y="-386.5" font-family="Times,serif" font-size="25.00" fill="#000000">Monétaire</text>
</g>
<!-- M&#45;&gt;I -->
<g id="edge2" class="edge">
<title>M&#45;&gt;I</title>
<path fill="none" stroke="#000000" stroke-width="1.15" d="M138.25,-331.7958C138.25,-303.4581 138.25,-270.005 138.25,-241.7253"/>
<polygon fill="#000000" stroke="#000000" stroke-width="1.15" points="135.6251,-332.1442 138.25,-339.6442 140.8751,-332.1443 135.6251,-332.1442"/>
<polygon fill="#000000" stroke="#000000" stroke-width="1.15" points="140.8751,-241.5012 138.25,-234.0012 135.6251,-241.5013 140.8751,-241.5012"/>
<text text-anchor="middle" x="126.85" y="-282.8" font-family="Times,serif" font-size="14.00" fill="#000000">0.93</text>
</g>
<!-- M&#45;&gt;M -->
<g id="edge23" class="edge">
<title>M&#45;&gt;M</title>
<path fill="none" stroke="#7f7f7f" stroke-width="1.15" stroke-dasharray="5,2" d="M126.5581,-453.822C128.6464,-461.176 132.5437,-466 138.25,-466 143.9563,-466 147.8536,-461.176 149.9419,-453.822"/>
<polygon fill="#7f7f7f" stroke="#7f7f7f" stroke-width="1.15" points="129.1308,-453.2992 125.1488,-446.4228 123.9735,-454.2815 129.1308,-453.2992"/>
<polygon fill="#7f7f7f" stroke="#7f7f7f" stroke-width="1.15" points="152.5265,-454.2815 151.3512,-446.4228 147.3692,-453.2992 152.5265,-454.2815"/>
<text text-anchor="middle" x="138.25" y="-470.2" font-family="Times,serif" font-size="14.00" fill="#000000">1.00</text>
</g>
<!-- 3 -->
<g id="node4" class="node">
<title>3</title>
<polygon fill="none" stroke="#000000" points="506.75,-468 290.75,-468 290.75,-432 506.75,-432 506.75,-468"/>
<text text-anchor="middle" x="398.75" y="-444" font-family="Times,serif" font-size="20.00" fill="#000000">(&#45;) Quintile niveau de vie</text>
</g>
<!-- M&#45;&gt;3 -->
<g id="edge10" class="edge">
<title>M&#45;&gt;3</title>
<path fill="none" stroke="#000000" stroke-width="1.15" d="M191.1347,-406.4222C203.6208,-409.2947 216.895,-412.2992 229.25,-415 252.6919,-420.1244 278.0025,-425.4575 301.7349,-430.3705"/>
<polygon fill="#000000" stroke="#000000" stroke-width="1.15" points="301.5044,-433.0033 309.3804,-431.9501 302.5666,-427.8619 301.5044,-433.0033"/>
<text text-anchor="middle" x="241.5" y="-424.2" font-family="Times,serif" font-size="14.00" fill="#000000">0.83</text>
</g>
<!-- 4 -->
<g id="node5" class="node">
<title>4</title>
<polygon fill="none" stroke="#000000" points="506.75,-414 290.75,-414 290.75,-378 506.75,-378 506.75,-414"/>
<text text-anchor="middle" x="398.75" y="-390" font-family="Times,serif" font-size="20.00" fill="#000000">(&#45;) Revenus locatifs</text>
</g>
<!-- M&#45;&gt;4 -->
<g id="edge11" class="edge">
<title>M&#45;&gt;4</title>
<path fill="none" stroke="#000000" stroke-width="1.15" d="M192.5422,-394.4168C218.8397,-394.6187 251.4871,-394.8694 282.9896,-395.1112"/>
<polygon fill="#000000" stroke="#000000" stroke-width="1.15" points="283.0203,-397.7365 290.5402,-395.1692 283.0606,-392.4866 283.0203,-397.7365"/>
<text text-anchor="middle" x="241.5" y="-398.2" font-family="Times,serif" font-size="14.00" fill="#000000">0.61</text>
</g>
<!-- 5 -->
<g id="node6" class="node">
<title>5</title>
<polygon fill="none" stroke="#000000" points="506.75,-360 290.75,-360 290.75,-324 506.75,-324 506.75,-360"/>
<text text-anchor="middle" x="398.75" y="-336" font-family="Times,serif" font-size="20.00" fill="#000000">(&#45;) Revenus financiers</text>
</g>
<!-- M&#45;&gt;5 -->
<g id="edge12" class="edge">
<title>M&#45;&gt;5</title>
<path fill="none" stroke="#000000" stroke-width="1.15" d="M191.0982,-381.5191C203.5858,-378.6813 216.8698,-375.7531 229.25,-373.2 248.6089,-369.2077 269.2636,-365.1983 289.2563,-361.4464"/>
<polygon fill="#000000" stroke="#000000" stroke-width="1.15" points="289.9918,-363.9794 296.8821,-360.0216 289.0276,-358.8187 289.9918,-363.9794"/>
<text text-anchor="middle" x="241.5" y="-377.2" font-family="Times,serif" font-size="14.00" fill="#000000">0.61</text>
</g>
<!-- S -->
<g id="node3" class="node">
<title>S</title>
<polygon fill="none" stroke="#000000" points="192.25,-662 84.25,-662 84.25,-554 192.25,-554 192.25,-662"/>
<text text-anchor="middle" x="138.25" y="-630.5" font-family="Times,serif" font-size="25.00" fill="#000000">Sentiment</text>
<text text-anchor="middle" x="138.25" y="-600.5" font-family="Times,serif" font-size="25.00" fill="#000000">de</text>
<text text-anchor="middle" x="138.25" y="-570.5" font-family="Times,serif" font-size="25.00" fill="#000000">pauvreté</text>
</g>
<!-- S&#45;&gt;I -->
<g id="edge3" class="edge">
<title>S&#45;&gt;I</title>
<path fill="none" stroke="#000000" stroke-width="1.15" d="M95.9517,-547.0937C70.4495,-503.2599 44.8301,-442.1368 55.75,-385.6 66.0579,-332.2318 90.1273,-275.1292 109.6228,-234.6797"/>
<polygon fill="#000000" stroke="#000000" stroke-width="1.15" points="93.7891,-548.5934 99.8732,-553.7046 98.3045,-545.9149 93.7891,-548.5934"/>
<polygon fill="#000000" stroke="#000000" stroke-width="1.15" points="112.0344,-235.7231 112.9569,-227.8307 107.314,-233.4252 112.0344,-235.7231"/>
<text text-anchor="middle" x="54" y="-389.8" font-family="Times,serif" font-size="14.00" fill="#000000">0.59</text>
</g>
<!-- S&#45;&gt;M -->
<g id="edge1" class="edge">
<title>S&#45;&gt;M</title>
<path fill="none" stroke="#000000" stroke-width="1.15" d="M138.25,-545.7958C138.25,-517.4581 138.25,-484.005 138.25,-455.7253"/>
<polygon fill="#000000" stroke="#000000" stroke-width="1.15" points="135.6251,-546.1442 138.25,-553.6442 140.8751,-546.1443 135.6251,-546.1442"/>
<polygon fill="#000000" stroke="#000000" stroke-width="1.15" points="140.8751,-455.5012 138.25,-448.0012 135.6251,-455.5013 140.8751,-455.5012"/>
<text text-anchor="middle" x="126.85" y="-496.8" font-family="Times,serif" font-size="14.00" fill="#000000">0.66</text>
</g>
<!-- S&#45;&gt;S -->
<g id="edge22" class="edge">
<title>S&#45;&gt;S</title>
<path fill="none" stroke="#7f7f7f" stroke-width="1.15" stroke-dasharray="5,2" d="M127.1374,-669.663C129.3306,-675.9706 133.0348,-680 138.25,-680 143.4652,-680 147.1694,-675.9706 149.3626,-669.663"/>
<polygon fill="#7f7f7f" stroke="#7f7f7f" stroke-width="1.15" points="129.6117,-668.7143 125.3507,-662.0073 124.4991,-669.9076 129.6117,-668.7143"/>
<polygon fill="#7f7f7f" stroke="#7f7f7f" stroke-width="1.15" points="152.0009,-669.9076 151.1493,-662.0073 146.8883,-668.7143 152.0009,-669.9076"/>
<text text-anchor="middle" x="138.25" y="-684.2" font-family="Times,serif" font-size="14.00" fill="#000000">1.00</text>
</g>
<!-- 3&#45;&gt;3 -->
<g id="edge13" class="edge">
<title>3:e&#45;&gt;3:e</title>
<path fill="none" stroke="#7f7f7f" stroke-width="1.15" stroke-dasharray="5,2" d="M514.0214,-452.5473C536.1422,-458.8999 569.75,-458.0508 569.75,-450 569.75,-441.9492 536.1422,-441.1001 514.0214,-447.4527"/>
<polygon fill="#7f7f7f" stroke="#7f7f7f" stroke-width="1.15" points="514.6961,-450.0023 506.75,-450 512.9603,-454.9571 514.6961,-450.0023"/>
<polygon fill="#7f7f7f" stroke="#7f7f7f" stroke-width="1.15" points="512.9603,-445.0429 506.75,-450 514.6961,-449.9977 512.9603,-445.0429"/>
<text text-anchor="middle" x="582" y="-445.8" font-family="Times,serif" font-size="14.00" fill="#000000">0.31</text>
</g>
<!-- 4&#45;&gt;4 -->
<g id="edge14" class="edge">
<title>4:e&#45;&gt;4:e</title>
<path fill="none" stroke="#7f7f7f" stroke-width="1.15" stroke-dasharray="5,2" d="M514.0214,-398.5473C536.1422,-404.8999 569.75,-404.0508 569.75,-396 569.75,-387.9492 536.1422,-387.1001 514.0214,-393.4527"/>
<polygon fill="#7f7f7f" stroke="#7f7f7f" stroke-width="1.15" points="514.6961,-396.0023 506.75,-396 512.9603,-400.9571 514.6961,-396.0023"/>
<polygon fill="#7f7f7f" stroke="#7f7f7f" stroke-width="1.15" points="512.9603,-391.0429 506.75,-396 514.6961,-395.9977 512.9603,-391.0429"/>
<text text-anchor="middle" x="582" y="-391.8" font-family="Times,serif" font-size="14.00" fill="#000000">0.63</text>
</g>
<!-- 5&#45;&gt;5 -->
<g id="edge15" class="edge">
<title>5:e&#45;&gt;5:e</title>
<path fill="none" stroke="#7f7f7f" stroke-width="1.15" stroke-dasharray="5,2" d="M514.0214,-344.5473C536.1422,-350.8999 569.75,-350.0508 569.75,-342 569.75,-333.9492 536.1422,-333.1001 514.0214,-339.4527"/>
<polygon fill="#7f7f7f" stroke="#7f7f7f" stroke-width="1.15" points="514.6961,-342.0023 506.75,-342 512.9603,-346.9571 514.6961,-342.0023"/>
<polygon fill="#7f7f7f" stroke="#7f7f7f" stroke-width="1.15" points="512.9603,-337.0429 506.75,-342 514.6961,-341.9977 512.9603,-337.0429"/>
<text text-anchor="middle" x="582" y="-337.8" font-family="Times,serif" font-size="14.00" fill="#000000">0.63</text>
</g>
<!-- 6&#45;&gt;6 -->
<g id="edge16" class="edge">
<title>6:e&#45;&gt;6:e</title>
<path fill="none" stroke="#7f7f7f" stroke-width="1.15" stroke-dasharray="5,2" d="M514.0214,-290.5473C536.1422,-296.8999 569.75,-296.0508 569.75,-288 569.75,-279.9492 536.1422,-279.1001 514.0214,-285.4527"/>
<polygon fill="#7f7f7f" stroke="#7f7f7f" stroke-width="1.15" points="514.6961,-288.0023 506.75,-288 512.9603,-292.9571 514.6961,-288.0023"/>
<polygon fill="#7f7f7f" stroke="#7f7f7f" stroke-width="1.15" points="512.9603,-283.0429 506.75,-288 514.6961,-287.9977 512.9603,-283.0429"/>
<text text-anchor="middle" x="582" y="-283.8" font-family="Times,serif" font-size="14.00" fill="#000000">0.45</text>
</g>
<!-- 7&#45;&gt;7 -->
<g id="edge17" class="edge">
<title>7:e&#45;&gt;7:e</title>
<path fill="none" stroke="#7f7f7f" stroke-width="1.15" stroke-dasharray="5,2" d="M514.0214,-236.5473C536.1422,-242.8999 569.75,-242.0508 569.75,-234 569.75,-225.9492 536.1422,-225.1001 514.0214,-231.4527"/>
<polygon fill="#7f7f7f" stroke="#7f7f7f" stroke-width="1.15" points="514.6961,-234.0023 506.75,-234 512.9603,-238.9571 514.6961,-234.0023"/>
<polygon fill="#7f7f7f" stroke="#7f7f7f" stroke-width="1.15" points="512.9603,-229.0429 506.75,-234 514.6961,-233.9977 512.9603,-229.0429"/>
<text text-anchor="middle" x="582" y="-229.8" font-family="Times,serif" font-size="14.00" fill="#000000">0.88</text>
</g>
<!-- 8&#45;&gt;8 -->
<g id="edge18" class="edge">
<title>8:e&#45;&gt;8:e</title>
<path fill="none" stroke="#7f7f7f" stroke-width="1.15" stroke-dasharray="5,2" d="M514.0214,-182.5473C536.1422,-188.8999 569.75,-188.0508 569.75,-180 569.75,-171.9492 536.1422,-171.1001 514.0214,-177.4527"/>
<polygon fill="#7f7f7f" stroke="#7f7f7f" stroke-width="1.15" points="514.6961,-180.0023 506.75,-180 512.9603,-184.9571 514.6961,-180.0023"/>
<polygon fill="#7f7f7f" stroke="#7f7f7f" stroke-width="1.15" points="512.9603,-175.0429 506.75,-180 514.6961,-179.9977 512.9603,-175.0429"/>
<text text-anchor="middle" x="582" y="-175.8" font-family="Times,serif" font-size="14.00" fill="#000000">0.22</text>
</g>
<!-- 9&#45;&gt;9 -->
<g id="edge19" class="edge">
<title>9:e&#45;&gt;9:e</title>
<path fill="none" stroke="#7f7f7f" stroke-width="1.15" stroke-dasharray="5,2" d="M514.0214,-128.5473C536.1422,-134.8999 569.75,-134.0508 569.75,-126 569.75,-117.9492 536.1422,-117.1001 514.0214,-123.4527"/>
<polygon fill="#7f7f7f" stroke="#7f7f7f" stroke-width="1.15" points="514.6961,-126.0023 506.75,-126 512.9603,-130.9571 514.6961,-126.0023"/>
<polygon fill="#7f7f7f" stroke="#7f7f7f" stroke-width="1.15" points="512.9603,-121.0429 506.75,-126 514.6961,-125.9977 512.9603,-121.0429"/>
<text text-anchor="middle" x="582" y="-121.8" font-family="Times,serif" font-size="14.00" fill="#000000">0.87</text>
</g>
<!-- 10&#45;&gt;10 -->
<g id="edge20" class="edge">
<title>10:e&#45;&gt;10:e</title>
<path fill="none" stroke="#7f7f7f" stroke-width="1.15" stroke-dasharray="5,2" d="M514.0214,-74.5473C536.1422,-80.8999 569.75,-80.0508 569.75,-72 569.75,-63.9492 536.1422,-63.1001 514.0214,-69.4527"/>
<polygon fill="#7f7f7f" stroke="#7f7f7f" stroke-width="1.15" points="514.6961,-72.0023 506.75,-72 512.9603,-76.9571 514.6961,-72.0023"/>
<polygon fill="#7f7f7f" stroke="#7f7f7f" stroke-width="1.15" points="512.9603,-67.0429 506.75,-72 514.6961,-71.9977 512.9603,-67.0429"/>
<text text-anchor="middle" x="582" y="-67.8" font-family="Times,serif" font-size="14.00" fill="#000000">0.80</text>
</g>
<!-- 11&#45;&gt;11 -->
<g id="edge21" class="edge">
<title>11:e&#45;&gt;11:e</title>
<path fill="none" stroke="#7f7f7f" stroke-width="1.15" stroke-dasharray="5,2" d="M514.0214,-20.5473C536.1422,-26.8999 569.75,-26.0508 569.75,-18 569.75,-9.9492 536.1422,-9.1001 514.0214,-15.4527"/>
<polygon fill="#7f7f7f" stroke="#7f7f7f" stroke-width="1.15" points="514.6961,-18.0023 506.75,-18 512.9603,-22.9571 514.6961,-18.0023"/>
<polygon fill="#7f7f7f" stroke="#7f7f7f" stroke-width="1.15" points="512.9603,-13.0429 506.75,-18 514.6961,-17.9977 512.9603,-13.0429"/>
<text text-anchor="middle" x="582" y="-13.8" font-family="Times,serif" font-size="14.00" fill="#000000">0.58</text>
</g>
</g>
</svg>

