<?xml version="1.0" encoding="UTF-8" standalone="no"?>
<!DOCTYPE svg PUBLIC "-//W3C//DTD SVG 1.1//EN"
 "http://www.w3.org/Graphics/SVG/1.1/DTD/svg11.dtd">
<!-- Generated by graphviz version 2.40.1 (20161225.0304)
 -->
<!-- Title: boxes_and_circles Pages: 1 -->
<svg width="655pt" height="625pt"
 viewBox="0.00 0.00 654.50 624.80" xmlns="http://www.w3.org/2000/svg" xmlns:xlink="http://www.w3.org/1999/xlink">
<g id="graph0" class="graph" transform="scale(1 1) rotate(0) translate(4 620.8)">
<title>boxes_and_circles</title>
<!-- P -->
<g id="node1" class="node">
<title>P</title>
<ellipse fill="none" stroke="#000000" cx="54" cy="-368" rx="54" ry="54"/>
<text text-anchor="middle" x="54" y="-360.5" font-family="Times,serif" font-size="25.00" fill="#000000">Pauvreté</text>
</g>
<!-- P&#45;&gt;P -->
<g id="edge25" class="edge">
<title>P&#45;&gt;P</title>
<path fill="none" stroke="#7f7f7f" stroke-width="1.15" stroke-dasharray="5,2" d="M40.2238,-427.403C42.625,-434.9923 47.217,-440 54,-440 60.783,-440 65.375,-434.9923 67.7762,-427.403"/>
<polygon fill="#7f7f7f" stroke="#7f7f7f" stroke-width="1.15" points="42.7345,-426.5839 38.6345,-419.7772 37.595,-427.655 42.7345,-426.5839"/>
<polygon fill="#7f7f7f" stroke="#7f7f7f" stroke-width="1.15" points="70.405,-427.655 69.3655,-419.7772 65.2655,-426.5839 70.405,-427.655"/>
<text text-anchor="middle" x="54" y="-444.2" font-family="Times,serif" font-size="14.00" fill="#000000">1.00</text>
</g>
<!-- S -->
<g id="node2" class="node">
<title>S</title>
<polygon fill="none" stroke="#000000" points="276.5,-582 168.5,-582 168.5,-474 276.5,-474 276.5,-582"/>
<text text-anchor="middle" x="222.5" y="-550.5" font-family="Times,serif" font-size="25.00" fill="#000000">Sentiment</text>
<text text-anchor="middle" x="222.5" y="-520.5" font-family="Times,serif" font-size="25.00" fill="#000000">de</text>
<text text-anchor="middle" x="222.5" y="-490.5" font-family="Times,serif" font-size="25.00" fill="#000000">pauvreté</text>
</g>
<!-- P&#45;&gt;S -->
<g id="edge10" class="edge">
<title>P&#45;&gt;S</title>
<path fill="none" stroke="#000000" stroke-width="2.5" d="M93.5058,-405.5129C113.5188,-424.5164 138.2772,-448.0258 160.7355,-469.3513"/>
<polygon fill="#000000" stroke="#000000" stroke-width="2.5" points="158.5918,-472.1422 168.2535,-476.49 163.4119,-467.0661 158.5918,-472.1422"/>
<text text-anchor="middle" x="138.25" y="-461.2" font-family="Times,serif" font-size="14.00" fill="#000000">0.65</text>
</g>
<!-- M -->
<g id="node3" class="node">
<title>M</title>
<ellipse fill="none" stroke="#000000" cx="222.5" cy="-368" rx="54" ry="54"/>
<text text-anchor="middle" x="222.5" y="-360.5" font-family="Times,serif" font-size="25.00" fill="#000000">Monétaire</text>
</g>
<!-- P&#45;&gt;M -->
<g id="edge12" class="edge">
<title>P&#45;&gt;M</title>
<path fill="none" stroke="#000000" stroke-width="2.5" d="M108.242,-368C124.1762,-368 141.7578,-368 158.2535,-368"/>
<polygon fill="#000000" stroke="#000000" stroke-width="2.5" points="158.3597,-371.5001 168.3597,-368 158.3596,-364.5001 158.3597,-371.5001"/>
<text text-anchor="middle" x="138.25" y="-372.2" font-family="Times,serif" font-size="14.00" fill="#000000">1.00</text>
</g>
<!-- I -->
<g id="node4" class="node">
<title>I</title>
<ellipse fill="none" stroke="#000000" cx="222.5" cy="-180" rx="54" ry="54"/>
<text text-anchor="middle" x="222.5" y="-172.5" font-family="Times,serif" font-size="25.00" fill="#000000">Institutio.</text>
</g>
<!-- P&#45;&gt;I -->
<g id="edge11" class="edge">
<title>P&#45;&gt;I</title>
<path fill="none" stroke="#000000" stroke-width="2.5" d="M90.1475,-327.6693C116.3564,-298.4272 151.9054,-258.7644 179.5616,-227.9075"/>
<polygon fill="#000000" stroke="#000000" stroke-width="2.5" points="182.3443,-230.0468 186.4123,-220.264 177.1316,-225.3747 182.3443,-230.0468"/>
<text text-anchor="middle" x="138.25" y="-289.2" font-family="Times,serif" font-size="14.00" fill="#000000">0.93</text>
</g>
<!-- S&#45;&gt;S -->
<g id="edge22" class="edge">
<title>S&#45;&gt;S</title>
<path fill="none" stroke="#7f7f7f" stroke-width="1.15" stroke-dasharray="5,2" d="M209.3744,-589.2573C211.9109,-595.7973 216.2861,-600 222.5,-600 228.7139,-600 233.0891,-595.7973 235.6256,-589.2573"/>
<polygon fill="#7f7f7f" stroke="#7f7f7f" stroke-width="1.15" points="211.9115,-588.5832 207.4508,-582.0073 206.8371,-589.9297 211.9115,-588.5832"/>
<polygon fill="#7f7f7f" stroke="#7f7f7f" stroke-width="1.15" points="238.1629,-589.9297 237.5492,-582.0073 233.0885,-588.5832 238.1629,-589.9297"/>
<text text-anchor="middle" x="222.5" y="-604.2" font-family="Times,serif" font-size="14.00" fill="#000000">0.58</text>
</g>
<!-- M&#45;&gt;M -->
<g id="edge23" class="edge">
<title>M&#45;&gt;M</title>
<path fill="none" stroke="#7f7f7f" stroke-width="1.15" stroke-dasharray="5,2" d="M208.7238,-427.403C211.125,-434.9923 215.717,-440 222.5,-440 229.283,-440 233.875,-434.9923 236.2762,-427.403"/>
<polygon fill="#7f7f7f" stroke="#7f7f7f" stroke-width="1.15" points="211.2345,-426.5839 207.1345,-419.7772 206.095,-427.655 211.2345,-426.5839"/>
<polygon fill="#7f7f7f" stroke="#7f7f7f" stroke-width="1.15" points="238.905,-427.655 237.8655,-419.7772 233.7655,-426.5839 238.905,-427.655"/>
<text text-anchor="middle" x="222.5" y="-444.2" font-family="Times,serif" font-size="14.00" fill="#000000">0.03</text>
</g>
<!-- 3 -->
<g id="node5" class="node">
<title>3</title>
<polygon fill="none" stroke="#000000" points="553,-468 337,-468 337,-432 553,-432 553,-468"/>
<text text-anchor="middle" x="445" y="-444" font-family="Times,serif" font-size="20.00" fill="#000000">(&#45;) Quintile niveau de vie</text>
</g>
<!-- M&#45;&gt;3 -->
<g id="edge7" class="edge">
<title>M&#45;&gt;3</title>
<path fill="none" stroke="#000000" stroke-width="1.15" d="M270.3169,-393.6452C290.4975,-403.7593 314.4938,-414.8765 337,-423 342.9054,-425.1315 349.051,-427.1568 355.2809,-429.0686"/>
<polygon fill="#000000" stroke="#000000" stroke-width="1.15" points="354.5355,-432.4979 365.1176,-431.9782 356.5211,-425.7854 354.5355,-432.4979"/>
<text text-anchor="middle" x="306.75" y="-419.2" font-family="Times,serif" font-size="14.00" fill="#000000">0.83</text>
</g>
<!-- 4 -->
<g id="node6" class="node">
<title>4</title>
<polygon fill="none" stroke="#000000" points="553,-414 337,-414 337,-378 553,-378 553,-414"/>
<text text-anchor="middle" x="445" y="-390" font-family="Times,serif" font-size="20.00" fill="#000000">(&#45;) Revenus locatifs</text>
</g>
<!-- M&#45;&gt;4 -->
<g id="edge8" class="edge">
<title>M&#45;&gt;4</title>
<path fill="none" stroke="#000000" stroke-width="1.15" d="M276.0774,-374.7423C291.4488,-376.6767 308.8506,-378.8666 326.4968,-381.0872"/>
<polygon fill="#000000" stroke="#000000" stroke-width="1.15" points="326.5425,-384.6205 336.9013,-382.3966 327.4166,-377.6753 326.5425,-384.6205"/>
<text text-anchor="middle" x="306.75" y="-383.2" font-family="Times,serif" font-size="14.00" fill="#000000">0.60</text>
</g>
<!-- 5 -->
<g id="node7" class="node">
<title>5</title>
<polygon fill="none" stroke="#000000" points="553,-360 337,-360 337,-324 553,-324 553,-360"/>
<text text-anchor="middle" x="445" y="-336" font-family="Times,serif" font-size="20.00" fill="#000000">(&#45;) Revenus financiers</text>
</g>
<!-- M&#45;&gt;5 -->
<g id="edge9" class="edge">
<title>M&#45;&gt;5</title>
<path fill="none" stroke="#000000" stroke-width="1.15" d="M275.4486,-356.3125C281.8467,-355.1384 288.3068,-354.0633 294.5,-353.2 304.9306,-351.746 315.796,-350.4724 326.7025,-349.3586"/>
<polygon fill="#000000" stroke="#000000" stroke-width="1.15" points="327.1068,-352.8358 336.719,-348.3799 326.426,-345.869 327.1068,-352.8358"/>
<text text-anchor="middle" x="306.75" y="-357.2" font-family="Times,serif" font-size="14.00" fill="#000000">0.60</text>
</g>
<!-- I&#45;&gt;I -->
<g id="edge24" class="edge">
<title>I&#45;&gt;I</title>
<path fill="none" stroke="#7f7f7f" stroke-width="1.15" stroke-dasharray="5,2" d="M208.7238,-239.403C211.125,-246.9923 215.717,-252 222.5,-252 229.283,-252 233.875,-246.9923 236.2762,-239.403"/>
<polygon fill="#7f7f7f" stroke="#7f7f7f" stroke-width="1.15" points="211.2345,-238.5839 207.1345,-231.7772 206.095,-239.655 211.2345,-238.5839"/>
<polygon fill="#7f7f7f" stroke="#7f7f7f" stroke-width="1.15" points="238.905,-239.655 237.8655,-231.7772 233.7655,-238.5839 238.905,-239.655"/>
<text text-anchor="middle" x="222.5" y="-256.2" font-family="Times,serif" font-size="14.00" fill="#000000">0.15</text>
</g>
<!-- 6 -->
<g id="node8" class="node">
<title>6</title>
<polygon fill="none" stroke="#000000" points="553,-306 337,-306 337,-270 553,-270 553,-306"/>
<text text-anchor="middle" x="445" y="-282" font-family="Times,serif" font-size="20.00" fill="#000000">RSA</text>
</g>
<!-- I&#45;&gt;6 -->
<g id="edge1" class="edge">
<title>I&#45;&gt;6</title>
<path fill="none" stroke="#000000" stroke-width="1.15" d="M263.9462,-214.9915C284.7433,-231.0211 310.9977,-249.0643 337,-261 341.3281,-262.9867 345.8236,-264.8411 350.4142,-266.5703"/>
<polygon fill="#000000" stroke="#000000" stroke-width="1.15" points="349.3525,-269.9072 359.9473,-269.946 351.6891,-263.3087 349.3525,-269.9072"/>
<text text-anchor="middle" x="306.75" y="-254.2" font-family="Times,serif" font-size="14.00" fill="#000000">0.74</text>
</g>
<!-- 7 -->
<g id="node9" class="node">
<title>7</title>
<polygon fill="none" stroke="#000000" points="553,-252 337,-252 337,-216 553,-216 553,-252"/>
<text text-anchor="middle" x="445" y="-228" font-family="Times,serif" font-size="20.00" fill="#000000">Chômage</text>
</g>
<!-- I&#45;&gt;7 -->
<g id="edge2" class="edge">
<title>I&#45;&gt;7</title>
<path fill="none" stroke="#000000" stroke-width="1.15" d="M274.2965,-195.5637C281.0733,-197.4656 287.9394,-199.326 294.5,-201 311.7765,-205.4082 330.2595,-209.758 348.1494,-213.7811"/>
<polygon fill="#000000" stroke="#000000" stroke-width="1.15" points="347.4938,-217.2208 358.0158,-215.9808 349.0171,-210.3885 347.4938,-217.2208"/>
<text text-anchor="middle" x="306.75" y="-211.2" font-family="Times,serif" font-size="14.00" fill="#000000">0.35</text>
</g>
<!-- 8 -->
<g id="node10" class="node">
<title>8</title>
<polygon fill="none" stroke="#000000" points="553,-198 337,-198 337,-162 553,-162 553,-198"/>
<text text-anchor="middle" x="445" y="-174" font-family="Times,serif" font-size="20.00" fill="#000000">APL</text>
</g>
<!-- I&#45;&gt;8 -->
<g id="edge3" class="edge">
<title>I&#45;&gt;8</title>
<path fill="none" stroke="#000000" stroke-width="1.15" d="M276.6451,-180C291.9144,-180 309.1527,-180 326.6264,-180"/>
<polygon fill="#000000" stroke="#000000" stroke-width="1.15" points="326.9287,-183.5001 336.9287,-180 326.9287,-176.5001 326.9287,-183.5001"/>
<text text-anchor="middle" x="306.75" y="-184.2" font-family="Times,serif" font-size="14.00" fill="#000000">0.88</text>
</g>
<!-- 9 -->
<g id="node11" class="node">
<title>9</title>
<polygon fill="none" stroke="#000000" points="553,-144 337,-144 337,-108 553,-108 553,-144"/>
<text text-anchor="middle" x="445" y="-120" font-family="Times,serif" font-size="20.00" fill="#000000">Hand./Dépend.</text>
</g>
<!-- I&#45;&gt;9 -->
<g id="edge4" class="edge">
<title>I&#45;&gt;9</title>
<path fill="none" stroke="#000000" stroke-width="1.15" d="M274.3038,-164.6045C281.0793,-162.7174 287.9432,-160.8685 294.5,-159.2 312.003,-154.7461 330.739,-150.3328 348.8411,-146.2483"/>
<polygon fill="#000000" stroke="#000000" stroke-width="1.15" points="349.8266,-149.6144 358.8207,-144.0148 348.2977,-142.7834 349.8266,-149.6144"/>
<text text-anchor="middle" x="306.75" y="-163.2" font-family="Times,serif" font-size="14.00" fill="#000000">0.35</text>
</g>
<!-- 10 -->
<g id="node12" class="node">
<title>10</title>
<polygon fill="none" stroke="#000000" points="553,-90 337,-90 337,-54 553,-54 553,-90"/>
<text text-anchor="middle" x="445" y="-66" font-family="Times,serif" font-size="20.00" fill="#000000">Bourse étude</text>
</g>
<!-- I&#45;&gt;10 -->
<g id="edge5" class="edge">
<title>I&#45;&gt;10</title>
<path fill="none" stroke="#000000" stroke-width="1.15" d="M263.9462,-145.0085C284.7433,-128.9789 310.9977,-110.9357 337,-99 341.3281,-97.0133 345.8236,-95.1589 350.4142,-93.4297"/>
<polygon fill="#000000" stroke="#000000" stroke-width="1.15" points="351.6891,-96.6913 359.9473,-90.054 349.3525,-90.0928 351.6891,-96.6913"/>
<text text-anchor="middle" x="306.75" y="-125.2" font-family="Times,serif" font-size="14.00" fill="#000000">0.44</text>
</g>
<!-- 11 -->
<g id="node13" class="node">
<title>11</title>
<polygon fill="none" stroke="#000000" points="553,-36 337,-36 337,0 553,0 553,-36"/>
<text text-anchor="middle" x="445" y="-12" font-family="Times,serif" font-size="20.00" fill="#000000">HLM</text>
</g>
<!-- I&#45;&gt;11 -->
<g id="edge6" class="edge">
<title>I&#45;&gt;11</title>
<path fill="none" stroke="#000000" stroke-width="1.15" d="M250.0267,-133.1515C270.2251,-103.0875 300.4469,-65.8936 337,-45 340.0714,-43.2444 343.2558,-41.6018 346.5212,-40.0651"/>
<polygon fill="#000000" stroke="#000000" stroke-width="1.15" points="348.1199,-43.1871 355.912,-36.0084 345.3439,-36.761 348.1199,-43.1871"/>
<text text-anchor="middle" x="306.75" y="-81.2" font-family="Times,serif" font-size="14.00" fill="#000000">0.65</text>
</g>
<!-- 3&#45;&gt;3 -->
<g id="edge13" class="edge">
<title>3:e&#45;&gt;3:e</title>
<path fill="none" stroke="#7f7f7f" stroke-width="1.15" stroke-dasharray="5,2" d="M560.3321,-452.3792C584.5457,-458.9142 622,-458.1211 622,-450 622,-441.8789 584.5457,-441.0858 560.3321,-447.6208"/>
<polygon fill="#7f7f7f" stroke="#7f7f7f" stroke-width="1.15" points="560.9441,-449.8181 553,-450 559.3236,-454.8118 560.9441,-449.8181"/>
<polygon fill="#7f7f7f" stroke="#7f7f7f" stroke-width="1.15" points="559.3236,-445.1882 553,-450 560.9441,-450.1819 559.3236,-445.1882"/>
<text text-anchor="middle" x="634.25" y="-445.8" font-family="Times,serif" font-size="14.00" fill="#000000">0.28</text>
</g>
<!-- 4&#45;&gt;4 -->
<g id="edge14" class="edge">
<title>4:e&#45;&gt;4:e</title>
<path fill="none" stroke="#7f7f7f" stroke-width="1.15" stroke-dasharray="5,2" d="M560.3321,-398.3792C584.5457,-404.9142 622,-404.1211 622,-396 622,-387.8789 584.5457,-387.0858 560.3321,-393.6208"/>
<polygon fill="#7f7f7f" stroke="#7f7f7f" stroke-width="1.15" points="560.9441,-395.8181 553,-396 559.3236,-400.8118 560.9441,-395.8181"/>
<polygon fill="#7f7f7f" stroke="#7f7f7f" stroke-width="1.15" points="559.3236,-391.1882 553,-396 560.9441,-396.1819 559.3236,-391.1882"/>
<text text-anchor="middle" x="634.25" y="-391.8" font-family="Times,serif" font-size="14.00" fill="#000000">0.63</text>
</g>
<!-- 5&#45;&gt;5 -->
<g id="edge15" class="edge">
<title>5:e&#45;&gt;5:e</title>
<path fill="none" stroke="#7f7f7f" stroke-width="1.15" stroke-dasharray="5,2" d="M560.3321,-344.3792C584.5457,-350.9142 622,-350.1211 622,-342 622,-333.8789 584.5457,-333.0858 560.3321,-339.6208"/>
<polygon fill="#7f7f7f" stroke="#7f7f7f" stroke-width="1.15" points="560.9441,-341.8181 553,-342 559.3236,-346.8118 560.9441,-341.8181"/>
<polygon fill="#7f7f7f" stroke="#7f7f7f" stroke-width="1.15" points="559.3236,-337.1882 553,-342 560.9441,-342.1819 559.3236,-337.1882"/>
<text text-anchor="middle" x="634.25" y="-337.8" font-family="Times,serif" font-size="14.00" fill="#000000">0.63</text>
</g>
<!-- 6&#45;&gt;6 -->
<g id="edge16" class="edge">
<title>6:e&#45;&gt;6:e</title>
<path fill="none" stroke="#7f7f7f" stroke-width="1.15" stroke-dasharray="5,2" d="M560.3321,-290.3792C584.5457,-296.9142 622,-296.1211 622,-288 622,-279.8789 584.5457,-279.0858 560.3321,-285.6208"/>
<polygon fill="#7f7f7f" stroke="#7f7f7f" stroke-width="1.15" points="560.9441,-287.8181 553,-288 559.3236,-292.8118 560.9441,-287.8181"/>
<polygon fill="#7f7f7f" stroke="#7f7f7f" stroke-width="1.15" points="559.3236,-283.1882 553,-288 560.9441,-288.1819 559.3236,-283.1882"/>
<text text-anchor="middle" x="634.25" y="-283.8" font-family="Times,serif" font-size="14.00" fill="#000000">0.45</text>
</g>
<!-- 7&#45;&gt;7 -->
<g id="edge17" class="edge">
<title>7:e&#45;&gt;7:e</title>
<path fill="none" stroke="#7f7f7f" stroke-width="1.15" stroke-dasharray="5,2" d="M560.3321,-236.3792C584.5457,-242.9142 622,-242.1211 622,-234 622,-225.8789 584.5457,-225.0858 560.3321,-231.6208"/>
<polygon fill="#7f7f7f" stroke="#7f7f7f" stroke-width="1.15" points="560.9441,-233.8181 553,-234 559.3236,-238.8118 560.9441,-233.8181"/>
<polygon fill="#7f7f7f" stroke="#7f7f7f" stroke-width="1.15" points="559.3236,-229.1882 553,-234 560.9441,-234.1819 559.3236,-229.1882"/>
<text text-anchor="middle" x="634.25" y="-229.8" font-family="Times,serif" font-size="14.00" fill="#000000">0.88</text>
</g>
<!-- 8&#45;&gt;8 -->
<g id="edge18" class="edge">
<title>8:e&#45;&gt;8:e</title>
<path fill="none" stroke="#7f7f7f" stroke-width="1.15" stroke-dasharray="5,2" d="M560.3321,-182.3792C584.5457,-188.9142 622,-188.1211 622,-180 622,-171.8789 584.5457,-171.0858 560.3321,-177.6208"/>
<polygon fill="#7f7f7f" stroke="#7f7f7f" stroke-width="1.15" points="560.9441,-179.8181 553,-180 559.3236,-184.8118 560.9441,-179.8181"/>
<polygon fill="#7f7f7f" stroke="#7f7f7f" stroke-width="1.15" points="559.3236,-175.1882 553,-180 560.9441,-180.1819 559.3236,-175.1882"/>
<text text-anchor="middle" x="634.25" y="-175.8" font-family="Times,serif" font-size="14.00" fill="#000000">0.22</text>
</g>
<!-- 9&#45;&gt;9 -->
<g id="edge19" class="edge">
<title>9:e&#45;&gt;9:e</title>
<path fill="none" stroke="#7f7f7f" stroke-width="1.15" stroke-dasharray="5,2" d="M560.3321,-128.3792C584.5457,-134.9142 622,-134.1211 622,-126 622,-117.8789 584.5457,-117.0858 560.3321,-123.6208"/>
<polygon fill="#7f7f7f" stroke="#7f7f7f" stroke-width="1.15" points="560.9441,-125.8181 553,-126 559.3236,-130.8118 560.9441,-125.8181"/>
<polygon fill="#7f7f7f" stroke="#7f7f7f" stroke-width="1.15" points="559.3236,-121.1882 553,-126 560.9441,-126.1819 559.3236,-121.1882"/>
<text text-anchor="middle" x="634.25" y="-121.8" font-family="Times,serif" font-size="14.00" fill="#000000">0.87</text>
</g>
<!-- 10&#45;&gt;10 -->
<g id="edge20" class="edge">
<title>10:e&#45;&gt;10:e</title>
<path fill="none" stroke="#7f7f7f" stroke-width="1.15" stroke-dasharray="5,2" d="M560.3321,-74.3792C584.5457,-80.9142 622,-80.1211 622,-72 622,-63.8789 584.5457,-63.0858 560.3321,-69.6208"/>
<polygon fill="#7f7f7f" stroke="#7f7f7f" stroke-width="1.15" points="560.9441,-71.8181 553,-72 559.3236,-76.8118 560.9441,-71.8181"/>
<polygon fill="#7f7f7f" stroke="#7f7f7f" stroke-width="1.15" points="559.3236,-67.1882 553,-72 560.9441,-72.1819 559.3236,-67.1882"/>
<text text-anchor="middle" x="634.25" y="-67.8" font-family="Times,serif" font-size="14.00" fill="#000000">0.80</text>
</g>
<!-- 11&#45;&gt;11 -->
<g id="edge21" class="edge">
<title>11:e&#45;&gt;11:e</title>
<path fill="none" stroke="#7f7f7f" stroke-width="1.15" stroke-dasharray="5,2" d="M560.3321,-20.3792C584.5457,-26.9142 622,-26.1211 622,-18 622,-9.8789 584.5457,-9.0858 560.3321,-15.6208"/>
<polygon fill="#7f7f7f" stroke="#7f7f7f" stroke-width="1.15" points="560.9441,-17.8181 553,-18 559.3236,-22.8118 560.9441,-17.8181"/>
<polygon fill="#7f7f7f" stroke="#7f7f7f" stroke-width="1.15" points="559.3236,-13.1882 553,-18 560.9441,-18.1819 559.3236,-13.1882"/>
<text text-anchor="middle" x="634.25" y="-13.8" font-family="Times,serif" font-size="14.00" fill="#000000">0.58</text>
</g>
</g>
</svg>

