<svg width="1017" height="571" class="scatterD3" id="scatterD3-svg-explor_var" xmlns="http://www.w3.org/2000/svg" version="1.1"><style>.scatterD3 {font: 11px Open Sans, Droid Sans, Helvetica, Verdana, sans-serif;}.scatterD3 .axis line, .axis path { stroke: #000; fill: none; shape-rendering: CrispEdges;} .scatterD3 .axis .tick line { stroke: #ddd;} .scatterD3 .axis text { fill: #000; }</style><g class="root" transform="translate(30,5)" style="-webkit-tap-highlight-color: rgba(0, 0, 0, 0); cursor: move;"><rect class="viewport" width="546" height="546" style="fill: rgb(255, 255, 255);"></rect><g class="x axis" transform="translate(0,546)" fill="none" font-size="10" font-family="sans-serif" text-anchor="middle" style="font-size: 100%;"><path class="domain" stroke="currentColor" d="M0.5,-546V0.5H546.5V-546"></path><g class="tick" opacity="1" transform="translate(56.2595012663435,0)"><line stroke="currentColor" y2="-546"></line><text fill="currentColor" y="3" dy="0.71em">−1.5</text></g><g class="tick" opacity="1" transform="translate(127.4521374378727,0)"><line stroke="currentColor" y2="-546"></line><text fill="currentColor" y="3" dy="0.71em">−1</text></g><g class="tick" opacity="1" transform="translate(198.64477360940188,0)"><line stroke="currentColor" y2="-546"></line><text fill="currentColor" y="3" dy="0.71em">−0.5</text></g><g class="tick" opacity="1" transform="translate(269.83740978093107,0)"><line stroke="currentColor" y2="-546"></line><text fill="currentColor" y="3" dy="0.71em">0</text></g><g class="tick" opacity="1" transform="translate(341.0300459524603,0)"><line stroke="currentColor" y2="-546"></line><text fill="currentColor" y="3" dy="0.71em">0.5</text></g><g class="tick" opacity="1" transform="translate(412.2226821239895,0)"><line stroke="currentColor" y2="-546"></line><text fill="currentColor" y="3" dy="0.71em">1</text></g><g class="tick" opacity="1" transform="translate(483.41531829551866,0)"><line stroke="currentColor" y2="-546"></line><text fill="currentColor" y="3" dy="0.71em">1.5</text></g></g><g class="y axis" fill="none" font-size="10" font-family="sans-serif" text-anchor="end" style="font-size: 100%;"><path class="domain" stroke="currentColor" d="M546,546.5H0.5V0.5H546"></path><g class="tick" opacity="1" transform="translate(0,522.8301948157645)"><line stroke="currentColor" x2="546"></line><text fill="currentColor" x="-3" dy="0.32em">−1.5</text></g><g class="tick" opacity="1" transform="translate(0,451.63755864423536)"><line stroke="currentColor" x2="546"></line><text fill="currentColor" x="-3" dy="0.32em">−1</text></g><g class="tick" opacity="1" transform="translate(0,380.44492247270614)"><line stroke="currentColor" x2="546"></line><text fill="currentColor" x="-3" dy="0.32em">−0.5</text></g><g class="tick" opacity="1" transform="translate(0,309.2522863011769)"><line stroke="currentColor" x2="546"></line><text fill="currentColor" x="-3" dy="0.32em">0</text></g><g class="tick" opacity="1" transform="translate(0,238.05965012964776)"><line stroke="currentColor" x2="546"></line><text fill="currentColor" x="-3" dy="0.32em">0.5</text></g><g class="tick" opacity="1" transform="translate(0,166.8670139581186)"><line stroke="currentColor" x2="546"></line><text fill="currentColor" x="-3" dy="0.32em">1</text></g><g class="tick" opacity="1" transform="translate(0,95.6743777865894)"><line stroke="currentColor" x2="546"></line><text fill="currentColor" x="-3" dy="0.32em">1.5</text></g><g class="tick" opacity="1" transform="translate(0,24.481741615060248)"><line stroke="currentColor" x2="546"></line><text fill="currentColor" x="-3" dy="0.32em">2</text></g></g><text class="x-axis-label" transform="translate(541,540)" style="text-anchor: end; font-size: 100%;">Axis 1 (19.94%)</text><text class="y-axis-label" transform="translate(5,6) rotate(-90)" dy=".71em" style="text-anchor: end; font-size: 100%;">Axis 2 (9.69%)</text><svg class="chart-body" width="546" height="546"><line transform="translate(186.32679600492804,366.84547741714476)" class="point-label-line label-line-quantile_nivie--Quintile_4 color color-cquantile_nivie symbol symbol-cActive" x1="-9.731962675909038" x2="-20.251113830917063" y1="0.4345009965474168" y2="0.9041474401161054" style="stroke: rgb(253, 191, 111);"></line><line transform="translate(332.69885597359206,393.0443675282675)" class="point-label-line label-line-quantile_nivie--Quintile_2 color color-cquantile_nivie symbol symbol-cActive" x1="9.679982843246208" x2="33.194388801410014" y1="1.094449996914599" y2="3.753064371042001" style="stroke: rgb(253, 191, 111);"></line><line transform="translate(249.83062746993207,413.12069092863874)" class="point-label-line label-line-quantile_nivie--Quintile_3 color color-cquantile_nivie symbol symbol-cActive" x1="-8.856454196801451" x2="-24.921846668201255" y1="4.057475533043328" y2="11.417637448066273" style="stroke: rgb(253, 191, 111);"></line><line transform="translate(286.281257189755,330.822003514351)" class="point-label-line label-line-revenus_financiers--Pas_de_revenus_d_actifs_financiers color color-crevenus_financiers symbol symbol-cActive" x1="3.6176167395487244" x2="12.019047966332494" y1="9.045039401076382" y2="30.050934149664954" style="stroke: rgb(255, 127, 0);"></line><line transform="translate(284.5726339216383,327.8319127951467)" class="point-label-line label-line-revenus_locatifs--Pas_de_revenus_de_locations color color-crevenus_locatifs symbol symbol-cActive" x1="8.831360225359651" x2="61.00306216432088" y1="4.111808022175022" y2="28.402519428911774" style="stroke: rgb(202, 178, 214);"></line><line transform="translate(253.53264455085161,322.84842826313974)" class="point-label-line label-line-presta_rsa--Pas_de_RSA color color-cpresta_rsa symbol symbol-cActive" x1="8.060335870143271" x2="17.539683320656394" y1="5.470911651797075" y2="11.904970139427235" style="stroke: rgb(227, 26, 28);"></line><line transform="translate(212.66807138839386,333.24255314418303)" class="point-label-line label-line-presta_apl--Pas_d_APL color color-cpresta_apl symbol symbol-cActive" x1="-5.510046980692805" x2="-32.88303599285129" y1="8.03363373025217" y2="47.94337834703015" style="stroke: rgb(166, 206, 227);"></line><path class="line" d="M0,308.7522863011769L546,308.7522863011769" style="stroke-width: 1px; stroke: rgb(0, 0, 0); stroke-dasharray: 5;"></path><path class="line" d="M269.33740978093107,0L269.33740978093107,546" style="stroke-width: 1px; stroke: rgb(0, 0, 0); stroke-dasharray: 5;"></path><path transform="translate(212.66807138839386,333.24255314418303)" d="M4.222008245644752,0A4.222008245644752,4.222008245644752,0,1,1,-4.222008245644752,0A4.222008245644752,4.222008245644752,0,1,1,4.222008245644752,0" class="dot symbol symbol-cActive color color-cpresta_apl" style="fill: rgb(166, 206, 227); opacity: 1;"></path><path transform="translate(443.47459785649147,233.71524777638518)" d="M4.222008245644752,0A4.222008245644752,4.222008245644752,0,1,1,-4.222008245644752,0A4.222008245644752,4.222008245644752,0,1,1,4.222008245644752,0" class="dot symbol symbol-cActive color color-cpresta_apl" style="fill: rgb(166, 206, 227); opacity: 1;"></path><path transform="translate(254.67172672959606,309.1794421182061)" d="M4.222008245644752,0A4.222008245644752,4.222008245644752,0,1,1,-4.222008245644752,0A4.222008245644752,4.222008245644752,0,1,1,4.222008245644752,0" class="dot symbol symbol-cActive color color-cpresta_chomage" style="fill: rgb(31, 120, 180); opacity: 1;"></path><path transform="translate(372.4243469573053,305.33503976494353)" d="M4.222008245644752,0A4.222008245644752,4.222008245644752,0,1,1,-4.222008245644752,0A4.222008245644752,4.222008245644752,0,1,1,4.222008245644752,0" class="dot symbol symbol-cActive color color-cpresta_chomage" style="fill: rgb(31, 120, 180); opacity: 1;"></path><path transform="translate(260.6519081680045,318.14971427581884)" d="M4.222008245644752,0A4.222008245644752,4.222008245644752,0,1,1,-4.222008245644752,0A4.222008245644752,4.222008245644752,0,1,1,4.222008245644752,0" class="dot symbol symbol-cActive color color-cpresta_etudes" style="fill: rgb(178, 223, 138); opacity: 1;"></path><path transform="translate(422.686348094405,143.01582929385708)" d="M4.222008245644752,0A4.222008245644752,4.222008245644752,0,1,1,-4.222008245644752,0A4.222008245644752,4.222008245644752,0,1,1,4.222008245644752,0" class="dot symbol symbol-cActive color color-cpresta_etudes" style="fill: rgb(178, 223, 138); opacity: 1;"></path><path transform="translate(259.79759653394615,310.0337537522645)" d="M4.222008245644752,0A4.222008245644752,4.222008245644752,0,1,1,-4.222008245644752,0A4.222008245644752,4.222008245644752,0,1,1,4.222008245644752,0" class="dot symbol symbol-cActive color color-cpresta_handi" style="fill: rgb(51, 160, 44); opacity: 1;"></path><path transform="translate(390.36489127253066,292.8051357987544)" d="M4.222008245644752,0A4.222008245644752,4.222008245644752,0,1,1,-4.222008245644752,0A4.222008245644752,4.222008245644752,0,1,1,4.222008245644752,0" class="dot symbol symbol-cActive color color-cpresta_handi" style="fill: rgb(51, 160, 44); opacity: 1;"></path><path transform="translate(222.6350404524079,315.3020088289576)" d="M4.222008245644752,0A4.222008245644752,4.222008245644752,0,1,1,-4.222008245644752,0A4.222008245644752,4.222008245644752,0,1,1,4.222008245644752,0" class="dot symbol symbol-cActive color color-cpresta_hlm" style="fill: rgb(251, 154, 153); opacity: 1;"></path><path transform="translate(409.7292883111867,288.9607334454918)" d="M4.222008245644752,0A4.222008245644752,4.222008245644752,0,1,1,-4.222008245644752,0A4.222008245644752,4.222008245644752,0,1,1,4.222008245644752,0" class="dot symbol symbol-cActive color color-cpresta_hlm" style="fill: rgb(251, 154, 153); opacity: 1;"></path><path transform="translate(253.53264455085161,322.84842826313974)" d="M4.222008245644752,0A4.222008245644752,4.222008245644752,0,1,1,-4.222008245644752,0A4.222008245644752,4.222008245644752,0,1,1,4.222008245644752,0" class="dot symbol symbol-cActive color color-cpresta_rsa" style="fill: rgb(227, 26, 28); opacity: 1;"></path><path transform="translate(522.925579823918,83.07162963742948)" d="M4.222008245644752,0A4.222008245644752,4.222008245644752,0,1,1,-4.222008245644752,0A4.222008245644752,4.222008245644752,0,1,1,4.222008245644752,0" class="dot symbol symbol-cActive color color-cpresta_rsa" style="fill: rgb(227, 26, 28); opacity: 1;"></path><path transform="translate(332.69885597359206,393.0443675282675)" d="M4.222008245644752,0A4.222008245644752,4.222008245644752,0,1,1,-4.222008245644752,0A4.222008245644752,4.222008245644752,0,1,1,4.222008245644752,0" class="dot symbol symbol-cActive color color-cquantile_nivie" style="fill: rgb(253, 191, 111); opacity: 1;"></path><path transform="translate(439.914966047915,215.77470346115982)" d="M4.222008245644752,0A4.222008245644752,4.222008245644752,0,1,1,-4.222008245644752,0A4.222008245644752,4.222008245644752,0,1,1,4.222008245644752,0" class="dot symbol symbol-cActive color color-cquantile_nivie" style="fill: rgb(253, 191, 111); opacity: 1;"></path><path transform="translate(249.83062746993207,413.12069092863874)" d="M4.222008245644752,0A4.222008245644752,4.222008245644752,0,1,1,-4.222008245644752,0A4.222008245644752,4.222008245644752,0,1,1,4.222008245644752,0" class="dot symbol symbol-cActive color color-cquantile_nivie" style="fill: rgb(253, 191, 111); opacity: 1;"></path><path transform="translate(186.32679600492804,366.84547741714476)" d="M4.222008245644752,0A4.222008245644752,4.222008245644752,0,1,1,-4.222008245644752,0A4.222008245644752,4.222008245644752,0,1,1,4.222008245644752,0" class="dot symbol symbol-cActive color color-cquantile_nivie" style="fill: rgb(253, 191, 111); opacity: 1;"></path><path transform="translate(114.84938928871273,177.04590938384797)" d="M4.222008245644752,0A4.222008245644752,4.222008245644752,0,1,1,-4.222008245644752,0A4.222008245644752,4.222008245644752,0,1,1,4.222008245644752,0" class="dot symbol symbol-cActive color color-cquantile_nivie" style="fill: rgb(253, 191, 111); opacity: 1;"></path><path transform="translate(286.281257189755,330.822003514351)" d="M4.222008245644752,0A4.222008245644752,4.222008245644752,0,1,1,-4.222008245644752,0A4.222008245644752,4.222008245644752,0,1,1,4.222008245644752,0" class="dot symbol symbol-cActive color color-crevenus_financiers" style="fill: rgb(255, 127, 0); opacity: 1;"></path><path transform="translate(85.80279373072884,68.69071713078054)" d="M4.222008245644752,0A4.222008245644752,4.222008245644752,0,1,1,-4.222008245644752,0A4.222008245644752,4.222008245644752,0,1,1,4.222008245644752,0" class="dot symbol symbol-cActive color color-crevenus_financiers" style="fill: rgb(255, 127, 0); opacity: 1;"></path><path transform="translate(284.5726339216383,327.8319127951467)" d="M4.222008245644752,0A4.222008245644752,4.222008245644752,0,1,1,-4.222008245644752,0A4.222008245644752,4.222008245644752,0,1,1,4.222008245644752,0" class="dot symbol symbol-cActive color color-crevenus_locatifs" style="fill: rgb(202, 178, 214); opacity: 1;"></path><path transform="translate(87.08426118181634,79.65438310119607)" d="M4.222008245644752,0A4.222008245644752,4.222008245644752,0,1,1,-4.222008245644752,0A4.222008245644752,4.222008245644752,0,1,1,4.222008245644752,0" class="dot symbol symbol-cActive color color-crevenus_locatifs" style="fill: rgb(202, 178, 214); opacity: 1;"></path><path transform="translate(349.78508865475897,338.79557876556225)" d="M4.222008245644752,0A4.222008245644752,4.222008245644752,0,1,1,-4.222008245644752,0A4.222008245644752,4.222008245644752,0,1,1,4.222008245644752,0" class="dot symbol symbol-cActive color color-csubj_inf_mini_decla" style="fill: rgb(106, 61, 154); opacity: 1;"></path><path transform="translate(167.81671060033048,270.8778038579234)" d="M4.222008245644752,0A4.222008245644752,4.222008245644752,0,1,1,-4.222008245644752,0A4.222008245644752,4.222008245644752,0,1,1,4.222008245644752,0" class="dot symbol symbol-cActive color color-csubj_inf_mini_decla" style="fill: rgb(106, 61, 154); opacity: 1;"></path><path transform="translate(199.99578214986164,294.65614433921417)" d="M4.222008245644752,0A4.222008245644752,4.222008245644752,0,1,1,-4.222008245644752,0A4.222008245644752,4.222008245644752,0,1,1,4.222008245644752,0" class="dot symbol symbol-cActive color color-csubj_pauvrete_et_risque" style="fill: rgb(255, 255, 153); opacity: 1;"></path><path transform="translate(326.1491334458114,387.63372717923124)" d="M4.222008245644752,0A4.222008245644752,4.222008245644752,0,1,1,-4.222008245644752,0A4.222008245644752,4.222008245644752,0,1,1,4.222008245644752,0" class="dot symbol symbol-cActive color color-csubj_pauvrete_et_risque" style="fill: rgb(255, 255, 153); opacity: 1;"></path><path transform="translate(446.4646885756957,243.9669873850854)" d="M4.222008245644752,0A4.222008245644752,4.222008245644752,0,1,1,-4.222008245644752,0A4.222008245644752,4.222008245644752,0,1,1,4.222008245644752,0" class="dot symbol symbol-cActive color color-csubj_pauvrete_et_risque" style="fill: rgb(255, 255, 153); opacity: 1;"></path><text text-anchor="middle" class="point-label color color-cpresta_apl symbol symbol-cActive" transform="translate(212.66807138839386,333.24255314418303)" dx="-61.97678599285129px" dy="51.27540959703015px" style="font-size: 10px; fill: rgb(166, 206, 227); touch-action: none; -webkit-tap-highlight-color: rgba(0, 0, 0, 0); opacity: 1;">-Pas d'APL</text><text text-anchor="middle" class="point-label color color-cpresta_apl symbol symbol-cActive" transform="translate(443.47459785649147,233.71524777638518)" dx="-21.083335764125366px" dy="4.524335048338003px" style="font-size: 10px; fill: rgb(166, 206, 227); touch-action: none; -webkit-tap-highlight-color: rgba(0, 0, 0, 0); opacity: 1;">-APL</text><text text-anchor="middle" class="point-label color color-cpresta_chomage symbol symbol-cActive" transform="translate(254.67172672959606,309.1794421182061)" dx="-70.7297374060721px" dy="43.08980432351029px" style="font-size: 10px; fill: rgb(31, 120, 180); touch-action: none; -webkit-tap-highlight-color: rgba(0, 0, 0, 0); opacity: 1;">-Pas d'allocation chômage</text><text text-anchor="middle" class="point-label color color-cpresta_chomage symbol symbol-cActive" transform="translate(372.4243469573053,305.33503976494353)" dx="54.835392628360864px" dy="11.50876885127218px" style="font-size: 10px; fill: rgb(31, 120, 180); touch-action: none; -webkit-tap-highlight-color: rgba(0, 0, 0, 0); opacity: 1;">-Allocation chômage</text><text text-anchor="middle" class="point-label color color-cpresta_etudes symbol symbol-cActive" transform="translate(260.6519081680045,318.14971427581884)" dx="38.45057156024123px" dy="-18.170396105333907px" style="font-size: 10px; fill: rgb(178, 223, 138); touch-action: none; -webkit-tap-highlight-color: rgba(0, 0, 0, 0); opacity: 1;">-Pas de bourse d'étude</text><text text-anchor="middle" class="point-label color color-cpresta_etudes symbol symbol-cActive" transform="translate(422.686348094405,143.01582929385708)" dx="5.299003226882917px" dy="-9.06412137791159px" style="font-size: 10px; fill: rgb(178, 223, 138); touch-action: none; -webkit-tap-highlight-color: rgba(0, 0, 0, 0); opacity: 1;">-Bourse d'étude</text><text text-anchor="middle" class="point-label color color-cpresta_handi symbol symbol-cActive" transform="translate(259.79759653394615,310.0337537522645)" dx="-62.18390882129549px" dy="-4.840758227615936px" style="font-size: 10px; fill: rgb(51, 160, 44); touch-action: none; -webkit-tap-highlight-color: rgba(0, 0, 0, 0); opacity: 1;">-Pas d'AAH, APA, PCH (handicap)</text><text text-anchor="middle" class="point-label color color-cpresta_handi symbol symbol-cActive" transform="translate(390.36489127253066,292.8051357987544)" dx="35.98985214827036px" dy="40.71740433907041px" style="font-size: 10px; fill: rgb(51, 160, 44); touch-action: none; -webkit-tap-highlight-color: rgba(0, 0, 0, 0); opacity: 1;">-AAH, APA, PCH (handicap)</text><text text-anchor="middle" class="point-label color color-cpresta_hlm symbol symbol-cActive" transform="translate(222.6350404524079,315.3020088289576)" dx="-78.12682831404518px" dy="12.643481733392775px" style="font-size: 10px; fill: rgb(251, 154, 153); touch-action: none; -webkit-tap-highlight-color: rgba(0, 0, 0, 0); opacity: 1;">presta_hlm_-Locataire privé / hébergé, Propriétaire</text><text text-anchor="middle" class="point-label color color-cpresta_hlm symbol symbol-cActive" transform="translate(409.7292883111867,288.9607334454918)" dx="-47.45528637160322px" dy="-8.97663995380509px" style="font-size: 10px; fill: rgb(251, 154, 153); touch-action: none; -webkit-tap-highlight-color: rgba(0, 0, 0, 0); opacity: 1;">presta_hlm_-Locataire HLM</text><text text-anchor="middle" class="point-label color color-cpresta_rsa symbol symbol-cActive" transform="translate(253.53264455085161,322.84842826313974)" dx="17.539683320656394px" dy="21.901063889427235px" style="font-size: 10px; fill: rgb(227, 26, 28); touch-action: none; -webkit-tap-highlight-color: rgba(0, 0, 0, 0); opacity: 1;">-Pas de RSA</text><text text-anchor="middle" class="point-label color color-cpresta_rsa symbol symbol-cActive" transform="translate(522.925579823918,83.07162963742948)" dx="4.176834138245283px" dy="-10.28779839814942px" style="font-size: 10px; fill: rgb(227, 26, 28); touch-action: none; -webkit-tap-highlight-color: rgba(0, 0, 0, 0); opacity: 1;">-RSA</text><text text-anchor="middle" class="point-label color color-cquantile_nivie symbol symbol-cActive" transform="translate(332.69885597359206,393.0443675282675)" dx="62.491263801410014px" dy="7.085095621042001px" style="font-size: 10px; fill: rgb(253, 191, 111); touch-action: none; -webkit-tap-highlight-color: rgba(0, 0, 0, 0); opacity: 1;">-Quintile 2</text><text text-anchor="middle" class="point-label color color-cquantile_nivie symbol symbol-cActive" transform="translate(439.914966047915,215.77470346115982)" dx="-1.2184170980548856px" dy="-11.38793804329157px" style="font-size: 10px; fill: rgb(253, 191, 111); touch-action: none; -webkit-tap-highlight-color: rgba(0, 0, 0, 0); opacity: 1;">-Quintile 1</text><text text-anchor="middle" class="point-label color color-cquantile_nivie symbol symbol-cActive" transform="translate(249.83062746993207,413.12069092863874)" dx="-24.921846668201255px" dy="21.413731198066273px" style="font-size: 10px; fill: rgb(253, 191, 111); touch-action: none; -webkit-tap-highlight-color: rgba(0, 0, 0, 0); opacity: 1;">-Quintile 3</text><text text-anchor="middle" class="point-label color color-cquantile_nivie symbol symbol-cActive" transform="translate(186.32679600492804,366.84547741714476)" dx="-49.54798883091706px" dy="4.236178690116105px" style="font-size: 10px; fill: rgb(253, 191, 111); touch-action: none; -webkit-tap-highlight-color: rgba(0, 0, 0, 0); opacity: 1;">-Quintile 4</text><text text-anchor="middle" class="point-label color color-cquantile_nivie symbol symbol-cActive" transform="translate(114.84938928871273,177.04590938384797)" dx="-1.6608633825931776px" dy="-10.551952941156657px" style="font-size: 10px; fill: rgb(253, 191, 111); touch-action: none; -webkit-tap-highlight-color: rgba(0, 0, 0, 0); opacity: 1;">-Quintile 5</text><text text-anchor="middle" class="point-label color color-crevenus_financiers symbol symbol-cActive" transform="translate(286.281257189755,330.822003514351)" dx="12.019047966332494px" dy="40.047027899664954px" style="font-size: 10px; fill: rgb(255, 127, 0); touch-action: none; -webkit-tap-highlight-color: rgba(0, 0, 0, 0); opacity: 1;">-Pas de revenus d'actifs financiers</text><text text-anchor="middle" class="point-label color color-crevenus_financiers symbol symbol-cActive" transform="translate(85.80279373072884,68.69071713078054)" dx="-3.138424299214961px" dy="-9.609531341529731px" style="font-size: 10px; fill: rgb(255, 127, 0); touch-action: none; -webkit-tap-highlight-color: rgba(0, 0, 0, 0); opacity: 1;">-Revenus d'actifs financiers</text><text text-anchor="middle" class="point-label color color-crevenus_locatifs symbol symbol-cActive" transform="translate(284.5726339216383,327.8319127951467)" dx="132.34681216432088px" dy="31.734550678911774px" style="font-size: 10px; fill: rgb(202, 178, 214); touch-action: none; -webkit-tap-highlight-color: rgba(0, 0, 0, 0); opacity: 1;">-Pas de revenus de locations</text><text text-anchor="middle" class="point-label color color-crevenus_locatifs symbol symbol-cActive" transform="translate(87.08426118181634,79.65438310119607)" dx="2.6873038365988577px" dy="21.9313644440972px" style="font-size: 10px; fill: rgb(202, 178, 214); touch-action: none; -webkit-tap-highlight-color: rgba(0, 0, 0, 0); opacity: 1;">-Revenus de locations</text><text text-anchor="middle" class="point-label color color-csubj_inf_mini_decla symbol symbol-cActive" transform="translate(349.78508865475897,338.79557876556225)" dx="15.634121978040298px" dy="71.1272152962008px" style="font-size: 10px; fill: rgb(106, 61, 154); touch-action: none; -webkit-tap-highlight-color: rgba(0, 0, 0, 0); opacity: 1;">-Rev. inf. au minimum décla.</text><text text-anchor="middle" class="point-label color color-csubj_inf_mini_decla symbol symbol-cActive" transform="translate(167.81671060033048,270.8778038579234)" dx="-1.1512758833685268px" dy="-10.233020582162396px" style="font-size: 10px; fill: rgb(106, 61, 154); touch-action: none; -webkit-tap-highlight-color: rgba(0, 0, 0, 0); opacity: 1;">-Rev. sup. au minimum décla.</text><text text-anchor="middle" class="point-label color color-csubj_pauvrete_et_risque symbol symbol-cActive" transform="translate(199.99578214986164,294.65614433921417)" dx="6.2570678748155615px" dy="-11.471549243425898px" style="font-size: 10px; fill: rgb(255, 255, 153); touch-action: none; -webkit-tap-highlight-color: rgba(0, 0, 0, 0); opacity: 1;">Non pauvre</text><text text-anchor="middle" class="point-label color color-csubj_pauvrete_et_risque symbol symbol-cActive" transform="translate(326.1491334458114,387.63372717923124)" dx="3.506712404671191px" dy="66.46491553366707px" style="font-size: 10px; fill: rgb(255, 255, 153); touch-action: none; -webkit-tap-highlight-color: rgba(0, 0, 0, 0); opacity: 1;">Risque pauvreté futur</text><text text-anchor="middle" class="point-label color color-csubj_pauvrete_et_risque symbol symbol-cActive" transform="translate(446.4646885756957,243.9669873850854)" dx="16.331493897859445px" dy="20.942918523694743px" style="font-size: 10px; fill: rgb(255, 255, 153); touch-action: none; -webkit-tap-highlight-color: rgba(0, 0, 0, 0); opacity: 1;">Déjà pauvre</text></svg></g><defs><marker id="arrow-head-explor_var-#a6cee3" markerWidth="10" markerHeight="10" refX="10" refY="4" orient="auto"><path d="M0,0 L0,8 L10,4 L0,0" style="fill: rgb(166, 206, 227);"></path></marker><marker id="arrow-head-explor_var-#1f78b4" markerWidth="10" markerHeight="10" refX="10" refY="4" orient="auto"><path d="M0,0 L0,8 L10,4 L0,0" style="fill: rgb(31, 120, 180);"></path></marker><marker id="arrow-head-explor_var-#b2df8a" markerWidth="10" markerHeight="10" refX="10" refY="4" orient="auto"><path d="M0,0 L0,8 L10,4 L0,0" style="fill: rgb(178, 223, 138);"></path></marker><marker id="arrow-head-explor_var-#33a02c" markerWidth="10" markerHeight="10" refX="10" refY="4" orient="auto"><path d="M0,0 L0,8 L10,4 L0,0" style="fill: rgb(51, 160, 44);"></path></marker><marker id="arrow-head-explor_var-#fb9a99" markerWidth="10" markerHeight="10" refX="10" refY="4" orient="auto"><path d="M0,0 L0,8 L10,4 L0,0" style="fill: rgb(251, 154, 153);"></path></marker><marker id="arrow-head-explor_var-#e31a1c" markerWidth="10" markerHeight="10" refX="10" refY="4" orient="auto"><path d="M0,0 L0,8 L10,4 L0,0" style="fill: rgb(227, 26, 28);"></path></marker><marker id="arrow-head-explor_var-#fdbf6f" markerWidth="10" markerHeight="10" refX="10" refY="4" orient="auto"><path d="M0,0 L0,8 L10,4 L0,0" style="fill: rgb(253, 191, 111);"></path></marker><marker id="arrow-head-explor_var-#ff7f00" markerWidth="10" markerHeight="10" refX="10" refY="4" orient="auto"><path d="M0,0 L0,8 L10,4 L0,0" style="fill: rgb(255, 127, 0);"></path></marker><marker id="arrow-head-explor_var-#cab2d6" markerWidth="10" markerHeight="10" refX="10" refY="4" orient="auto"><path d="M0,0 L0,8 L10,4 L0,0" style="fill: rgb(202, 178, 214);"></path></marker><marker id="arrow-head-explor_var-#6a3d9a" markerWidth="10" markerHeight="10" refX="10" refY="4" orient="auto"><path d="M0,0 L0,8 L10,4 L0,0" style="fill: rgb(106, 61, 154);"></path></marker><marker id="arrow-head-explor_var-#ffff99" markerWidth="10" markerHeight="10" refX="10" refY="4" orient="auto"><path d="M0,0 L0,8 L10,4 L0,0" style="fill: rgb(255, 255, 153);"></path></marker><marker id="arrow-head-explor_var-#b15928" markerWidth="10" markerHeight="10" refX="10" refY="4" orient="auto"><path d="M0,0 L0,8 L10,4 L0,0" style="fill: rgb(177, 89, 40);"></path></marker></defs><g class="legend" style="font-size: 100%;"><g></g><g></g><g></g><g class="color-legend-label" transform="translate(600, 50)" style="opacity: 1;"><text style="fill: rgb(0, 0, 0); font-weight: bold;">Variable</text></g><g class="color-legend" transform="translate(600, 62)" style="opacity: 1;"><g class="legendCells"><g class="cell" transform="translate(0, 0)"><rect class="swatch" height="15" width="15" style="fill: rgb(166, 206, 227);"></rect><text class="label" transform="translate(25,12.5)">presta_apl</text></g><g class="cell" transform="translate(0, 18)"><rect class="swatch" height="15" width="15" style="fill: rgb(31, 120, 180);"></rect><text class="label" transform="translate(25,12.5)">presta_chomage</text></g><g class="cell" transform="translate(0, 36)"><rect class="swatch" height="15" width="15" style="fill: rgb(178, 223, 138);"></rect><text class="label" transform="translate(25,12.5)">presta_etudes</text></g><g class="cell" transform="translate(0, 54)"><rect class="swatch" height="15" width="15" style="fill: rgb(51, 160, 44);"></rect><text class="label" transform="translate(25,12.5)">presta_handi</text></g><g class="cell" transform="translate(0, 72)"><rect class="swatch" height="15" width="15" style="fill: rgb(251, 154, 153);"></rect><text class="label" transform="translate(25,12.5)">presta_hlm</text></g><g class="cell" transform="translate(0, 90)"><rect class="swatch" height="15" width="15" style="fill: rgb(227, 26, 28);"></rect><text class="label" transform="translate(25,12.5)">presta_rsa</text></g><g class="cell" transform="translate(0, 108)"><rect class="swatch" height="15" width="15" style="fill: rgb(253, 191, 111);"></rect><text class="label" transform="translate(25,12.5)">quantile_nivie</text></g><g class="cell" transform="translate(0, 126)"><rect class="swatch" height="15" width="15" style="fill: rgb(255, 127, 0);"></rect><text class="label" transform="translate(25,12.5)">revenus_financiers</text></g><g class="cell" transform="translate(0, 144)"><rect class="swatch" height="15" width="15" style="fill: rgb(202, 178, 214);"></rect><text class="label" transform="translate(25,12.5)">revenus_locatifs</text></g><g class="cell" transform="translate(0, 162)"><rect class="swatch" height="15" width="15" style="fill: rgb(106, 61, 154);"></rect><text class="label" transform="translate(25,12.5)">subj_inf_mini_decla</text></g><g class="cell" transform="translate(0, 180)"><rect class="swatch" height="15" width="15" style="fill: rgb(255, 255, 153);"></rect><text class="label" transform="translate(25,12.5)">subj_pauvrete_et_risque</text></g></g></g><g><text class="symbol-legend-label" transform="translate(600, 300)" style="fill: rgb(0, 0, 0); font-weight: bold; opacity: 1;">Type</text></g><g class="symbol-legend" transform="translate(608, 316)" style="opacity: 1;"><g class="legendCells"><g class="cell" transform="translate(0, 0)"><path class="swatch" d="M4.51351666838205,0A4.51351666838205,4.51351666838205,0,1,1,-4.51351666838205,0A4.51351666838205,4.51351666838205,0,1,1,4.51351666838205,0"></path><text class="label" transform="translate(19.027033805847168,5)">Active</text></g></g></g></g></svg>